<?xml version="1.0" encoding="UTF-8" standalone="no"?>
<!DOCTYPE svg PUBLIC "-//W3C//DTD SVG 1.1//EN"
 "http://www.w3.org/Graphics/SVG/1.1/DTD/svg11.dtd">
<!-- Generated by graphviz version 14.0.4 (20251115.1723)
 -->
<!-- Title: paper_artifact_map Pages: 1 -->
<svg width="498pt" height="516pt"
 viewBox="0.00 0.00 498.00 516.00" xmlns="http://www.w3.org/2000/svg" xmlns:xlink="http://www.w3.org/1999/xlink">
<g id="graph0" class="graph" transform="scale(1 1) rotate(0) translate(4 512)">
<title>paper_artifact_map</title>
<g id="clust1" class="cluster">
<title>cluster_papers</title>
<path fill="#fafafa" stroke="#bbbbbb" d="M20,-27C20,-27 148.67,-27 148.67,-27 154.67,-27 160.67,-33 160.67,-39 160.67,-39 160.67,-488 160.67,-488 160.67,-494 154.67,-500 148.67,-500 148.67,-500 20,-500 20,-500 14,-500 8,-494 8,-488 8,-488 8,-39 8,-39 8,-33 14,-27 20,-27"/>
<text xml:space="preserve" text-anchor="start" x="16" y="-485.6" font-family="Helvetica,sans-Serif" font-weight="bold" font-size="12.00">Papers &amp; tasks</text>
</g>
<g id="clust2" class="cluster">
<title>cluster_artifacts</title>
<path fill="#fafafa" stroke="#bbbbbb" d="M294.67,-8C294.67,-8 469.84,-8 469.84,-8 475.84,-8 481.84,-14 481.84,-20 481.84,-20 481.84,-450 481.84,-450 481.84,-456 475.84,-462 469.84,-462 469.84,-462 294.67,-462 294.67,-462 288.67,-462 282.67,-456 282.67,-450 282.67,-450 282.67,-20 282.67,-20 282.67,-14 288.67,-8 294.67,-8"/>
<text xml:space="preserve" text-anchor="start" x="290.67" y="-447.6" font-family="Helvetica,sans-Serif" font-weight="bold" font-size="12.00">Artifact classes (§7)</text>
</g>
<!-- P1 -->
<g id="node1" class="node">
<title>P1</title>
<path fill="#e6f2ff" stroke="#1f4e79" stroke-width="1.1" d="M128.79,-467.2C128.79,-467.2 39.87,-467.2 39.87,-467.2 33.87,-467.2 27.87,-461.2 27.87,-455.2 27.87,-455.2 27.87,-434.8 27.87,-434.8 27.87,-428.8 33.87,-422.8 39.87,-422.8 39.87,-422.8 128.79,-422.8 128.79,-422.8 134.79,-422.8 140.79,-428.8 140.79,-434.8 140.79,-434.8 140.79,-455.2 140.79,-455.2 140.79,-461.2 134.79,-467.2 128.79,-467.2"/>
<text xml:space="preserve" text-anchor="start" x="78.33" y="-451.5" font-family="Helvetica,sans-Serif" font-weight="bold" font-size="10.00">P1</text>
<text xml:space="preserve" text-anchor="start" x="55.08" y="-441.5" font-family="Helvetica,sans-Serif" font-size="10.00">AppSec Core</text>
<text xml:space="preserve" text-anchor="start" x="40.83" y="-431.5" font-family="Helvetica,sans-Serif" font-size="10.00">normalized ontology</text>
</g>
<!-- A71 -->
<g id="node8" class="node">
<title>A71</title>
<path fill="#fff8dc" stroke="#b8860b" stroke-width="1.1" d="M455.21,-429.2C455.21,-429.2 309.29,-429.2 309.29,-429.2 303.29,-429.2 297.29,-423.2 297.29,-417.2 297.29,-417.2 297.29,-380.8 297.29,-380.8 297.29,-374.8 303.29,-368.8 309.29,-368.8 309.29,-368.8 455.21,-368.8 455.21,-368.8 461.21,-368.8 467.21,-374.8 467.21,-380.8 467.21,-380.8 467.21,-417.2 467.21,-417.2 467.21,-423.2 461.21,-429.2 455.21,-429.2"/>
<text xml:space="preserve" text-anchor="start" x="321.13" y="-413.5" font-family="Helvetica,sans-Serif" font-weight="bold" font-size="10.00">§7.1 Canonical knowledge</text>
<text xml:space="preserve" text-anchor="start" x="332.38" y="-404.45" font-family="Helvetica,sans-Serif" font-size="9.00">SbD&#45;ToE manual corpus</text>
<text xml:space="preserve" text-anchor="start" x="319.63" y="-395.45" font-family="Helvetica,sans-Serif" font-size="9.00">AppSec Core v0 YAML + slices</text>
<text xml:space="preserve" text-anchor="start" x="326.75" y="-386.45" font-family="Helvetica,sans-Serif" font-size="9.00">compiled knowledge graph</text>
<text xml:space="preserve" text-anchor="start" x="310.25" y="-377.45" font-family="Helvetica,sans-Serif" font-size="9.00">frozen manual snapshot </text>
<text xml:space="preserve" text-anchor="start" x="410.75" y="-377.45" font-family="Helvetica,sans-Serif" font-style="italic" font-size="9.00">(expected)</text>
</g>
<!-- P1&#45;&gt;A71 -->
<g id="edge1" class="edge">
<title>P1&#45;&gt;A71</title>
<path fill="none" stroke="#555555" stroke-width="0.9" d="M141.18,-449.71C173.66,-451.27 215.24,-451.27 251.67,-445 268.14,-442.16 285.29,-437.44 301.52,-432.07"/>
<polygon fill="#555555" stroke="#555555" stroke-width="0.9" points="302.11,-434.09 307.12,-430.17 300.77,-430.11 302.11,-434.09"/>
<text xml:space="preserve" text-anchor="middle" x="221.67" y="-451.76" font-family="Helvetica,sans-Serif" font-size="8.00" fill="#1f4e79">produces</text>
</g>
<!-- A75 -->
<g id="node12" class="node">
<title>A75</title>
<path fill="#eeeeee" stroke="#666666" stroke-width="1.1" d="M457.84,-351.2C457.84,-351.2 306.67,-351.2 306.67,-351.2 300.67,-351.2 294.67,-345.2 294.67,-339.2 294.67,-339.2 294.67,-284.8 294.67,-284.8 294.67,-278.8 300.67,-272.8 306.67,-272.8 306.67,-272.8 457.84,-272.8 457.84,-272.8 463.84,-272.8 469.84,-278.8 469.84,-284.8 469.84,-284.8 469.84,-339.2 469.84,-339.2 469.84,-345.2 463.84,-351.2 457.84,-351.2"/>
<text xml:space="preserve" text-anchor="start" x="323.75" y="-335.5" font-family="Helvetica,sans-Serif" font-weight="bold" font-size="10.00">§7.5 Publication surfaces</text>
<text xml:space="preserve" text-anchor="start" x="307.63" y="-326.45" font-family="Helvetica,sans-Serif" font-size="9.00">appsec&#45;core&#45;ontology&#45;research repo</text>
<text xml:space="preserve" text-anchor="start" x="329.38" y="-317.45" font-family="Helvetica,sans-Serif" font-size="9.00">OSF components (P4, P5)</text>
<text xml:space="preserve" text-anchor="start" x="328.25" y="-308.45" font-family="Helvetica,sans-Serif" font-size="9.00">www.securitybydesign.dev</text>
<text xml:space="preserve" text-anchor="start" x="326" y="-299.45" font-family="Helvetica,sans-Serif" font-size="9.00">sbd&#45;toe&#45;manual public repo</text>
<text xml:space="preserve" text-anchor="start" x="350.75" y="-290.45" font-family="Helvetica,sans-Serif" font-size="9.00">IGAC 949/2025</text>
<text xml:space="preserve" text-anchor="start" x="345.5" y="-281.45" font-family="Helvetica,sans-Serif" font-size="9.00">Zenodo </text>
<text xml:space="preserve" text-anchor="start" x="379.25" y="-281.45" font-family="Helvetica,sans-Serif" font-style="italic" font-size="9.00">(planned)</text>
</g>
<!-- P1&#45;&gt;A75 -->
<g id="edge2" class="edge">
<title>P1&#45;&gt;A75</title>
<path fill="none" stroke="#555555" stroke-width="0.9" d="M141.08,-441.66C175.48,-437.29 219.11,-427.36 251.67,-405 271.69,-391.25 264.26,-375.84 282.67,-360 284.47,-358.45 286.34,-356.93 288.25,-355.46"/>
<polygon fill="#555555" stroke="#555555" stroke-width="0.9" points="289.44,-357.19 293.02,-351.94 286.95,-353.81 289.44,-357.19"/>
<text xml:space="preserve" text-anchor="middle" x="221.67" y="-432.8" font-family="Helvetica,sans-Serif" font-size="8.00">published on</text>
</g>
<!-- P1c -->
<g id="node2" class="node">
<title>P1c</title>
<path fill="#e6f2ff" stroke="#1f4e79" stroke-width="1.1" stroke-dasharray="5,2" d="M127.67,-283.2C127.67,-283.2 41,-283.2 41,-283.2 35,-283.2 29,-277.2 29,-271.2 29,-271.2 29,-252.8 29,-252.8 29,-246.8 35,-240.8 41,-240.8 41,-240.8 127.67,-240.8 127.67,-240.8 133.67,-240.8 139.67,-246.8 139.67,-252.8 139.67,-252.8 139.67,-271.2 139.67,-271.2 139.67,-277.2 133.67,-283.2 127.67,-283.2"/>
<text xml:space="preserve" text-anchor="start" x="50.58" y="-267.5" font-family="Helvetica,sans-Serif" font-weight="bold" font-size="10.00">P1 companion</text>
<text xml:space="preserve" text-anchor="start" x="41.96" y="-257.5" font-family="Helvetica,sans-Serif" font-size="10.00">structural resilience</text>
<text xml:space="preserve" text-anchor="start" x="55.46" y="-249.4" font-family="Helvetica,sans-Serif" font-size="8.00">(not yet drafted)</text>
</g>
<!-- A72 -->
<g id="node9" class="node">
<title>A72</title>
<path fill="#e6f2ff" stroke="#1f4e79" stroke-width="1.1" d="M443.59,-255.2C443.59,-255.2 320.92,-255.2 320.92,-255.2 314.92,-255.2 308.92,-249.2 308.92,-243.2 308.92,-243.2 308.92,-206.8 308.92,-206.8 308.92,-200.8 314.92,-194.8 320.92,-194.8 320.92,-194.8 443.59,-194.8 443.59,-194.8 449.59,-194.8 455.59,-200.8 455.59,-206.8 455.59,-206.8 455.59,-243.2 455.59,-243.2 455.59,-249.2 449.59,-255.2 443.59,-255.2"/>
<text xml:space="preserve" text-anchor="start" x="324.5" y="-239.5" font-family="Helvetica,sans-Serif" font-weight="bold" font-size="10.00">§7.2 Formal companions</text>
<text xml:space="preserve" text-anchor="start" x="321.88" y="-230.45" font-family="Helvetica,sans-Serif" font-size="9.00">AppSec Core v0 OWL 2/Turtle</text>
<text xml:space="preserve" text-anchor="start" x="351.13" y="-221.45" font-family="Helvetica,sans-Serif" font-size="9.00">SHACL shapes</text>
<text xml:space="preserve" text-anchor="start" x="340.25" y="-212.45" font-family="Helvetica,sans-Serif" font-size="9.00">conformance reports</text>
<text xml:space="preserve" text-anchor="start" x="340.63" y="-203.45" font-family="Helvetica,sans-Serif" font-size="9.00">visualization outputs</text>
</g>
<!-- P1c&#45;&gt;A72 -->
<g id="edge3" class="edge">
<title>P1c&#45;&gt;A72</title>
<path fill="none" stroke="#555555" stroke-width="0.9" d="M140.14,-251.99C156.67,-249.17 174.88,-246.26 191.67,-244 227.63,-239.16 267.59,-234.98 301.51,-231.78"/>
<polygon fill="#555555" stroke="#555555" stroke-width="0.9" points="301.51,-233.89 307.29,-231.24 301.12,-229.71 301.51,-233.89"/>
<text xml:space="preserve" text-anchor="middle" x="221.67" y="-245.4" font-family="Helvetica,sans-Serif" font-size="8.00" fill="#1f4e79">formalizes</text>
</g>
<!-- P1c&#45;&gt;A75 -->
<g id="edge4" class="edge">
<title>P1c&#45;&gt;A75</title>
<path fill="none" stroke="#555555" stroke-width="0.9" stroke-dasharray="5,2" d="M139.96,-271.23C181.1,-278.18 238.53,-287.88 287.03,-296.08"/>
<polygon fill="#555555" stroke="#555555" stroke-width="0.9" points="286.51,-298.12 292.78,-297.05 287.21,-293.98 286.51,-298.12"/>
<text xml:space="preserve" text-anchor="middle" x="221.67" y="-291.39" font-family="Helvetica,sans-Serif" font-size="8.00">published on</text>
</g>
<!-- P2 -->
<g id="node3" class="node">
<title>P2</title>
<path fill="#e8f5e8" stroke="#2e7d32" stroke-width="1.1" d="M129.17,-345.2C129.17,-345.2 39.5,-345.2 39.5,-345.2 33.5,-345.2 27.5,-339.2 27.5,-333.2 27.5,-333.2 27.5,-312.8 27.5,-312.8 27.5,-306.8 33.5,-300.8 39.5,-300.8 39.5,-300.8 129.17,-300.8 129.17,-300.8 135.17,-300.8 141.17,-306.8 141.17,-312.8 141.17,-312.8 141.17,-333.2 141.17,-333.2 141.17,-339.2 135.17,-345.2 129.17,-345.2"/>
<text xml:space="preserve" text-anchor="start" x="78.33" y="-329.5" font-family="Helvetica,sans-Serif" font-weight="bold" font-size="10.00">P2</text>
<text xml:space="preserve" text-anchor="start" x="40.46" y="-319.5" font-family="Helvetica,sans-Serif" font-size="10.00">coverage&#45;preserving</text>
<text xml:space="preserve" text-anchor="start" x="59.58" y="-309.5" font-family="Helvetica,sans-Serif" font-size="10.00">compilation</text>
</g>
<!-- P2&#45;&gt;A71 -->
<g id="edge5" class="edge">
<title>P2&#45;&gt;A71</title>
<path fill="none" stroke="#555555" stroke-width="0.9" d="M141.44,-322.25C174.38,-323.38 216.34,-327.6 251.67,-340 267.14,-345.43 268.09,-352.5 282.67,-360 286.15,-361.79 289.73,-363.55 293.37,-365.27"/>
<polygon fill="#555555" stroke="#555555" stroke-width="0.9" points="292.42,-367.15 298.75,-367.76 294.18,-363.34 292.42,-367.15"/>
<text xml:space="preserve" text-anchor="middle" x="221.67" y="-341.4" font-family="Helvetica,sans-Serif" font-size="8.00" fill="#2e7d32">extends</text>
</g>
<!-- P2&#45;&gt;A75 -->
<g id="edge6" class="edge">
<title>P2&#45;&gt;A75</title>
<path fill="none" stroke="#555555" stroke-width="0.9" d="M141.47,-313.58C157.62,-311.28 175.3,-309.15 191.67,-308 222.68,-305.82 256.61,-305.8 287.08,-306.63"/>
<polygon fill="#555555" stroke="#555555" stroke-width="0.9" points="286.92,-308.73 292.98,-306.81 287.05,-304.53 286.92,-308.73"/>
<text xml:space="preserve" text-anchor="middle" x="221.67" y="-309.4" font-family="Helvetica,sans-Serif" font-size="8.00">published on</text>
</g>
<!-- P2v2 -->
<g id="node4" class="node">
<title>P2v2</title>
<path fill="#e8f5e8" stroke="#2e7d32" stroke-width="1.1" stroke-dasharray="5,2" d="M132.17,-405.2C132.17,-405.2 36.5,-405.2 36.5,-405.2 30.5,-405.2 24.5,-399.2 24.5,-393.2 24.5,-393.2 24.5,-374.8 24.5,-374.8 24.5,-368.8 30.5,-362.8 36.5,-362.8 36.5,-362.8 132.17,-362.8 132.17,-362.8 138.17,-362.8 144.17,-368.8 144.17,-374.8 144.17,-374.8 144.17,-393.2 144.17,-393.2 144.17,-399.2 138.17,-405.2 132.17,-405.2"/>
<text xml:space="preserve" text-anchor="start" x="71.58" y="-389.5" font-family="Helvetica,sans-Serif" font-weight="bold" font-size="10.00">P2&#45;v2</text>
<text xml:space="preserve" text-anchor="start" x="37.46" y="-379.5" font-family="Helvetica,sans-Serif" font-size="10.00">residual classification</text>
<text xml:space="preserve" text-anchor="start" x="55.46" y="-371.4" font-family="Helvetica,sans-Serif" font-size="8.00">(not yet drafted)</text>
</g>
<!-- P2v2&#45;&gt;A71 -->
<g id="edge7" class="edge">
<title>P2v2&#45;&gt;A71</title>
<path fill="none" stroke="#555555" stroke-width="0.9" stroke-dasharray="5,2" d="M144.51,-387C186.06,-389.11 242.44,-391.96 289.75,-394.36"/>
<polygon fill="#555555" stroke="#555555" stroke-width="0.9" points="289.5,-396.45 295.6,-394.66 289.72,-392.26 289.5,-396.45"/>
<text xml:space="preserve" text-anchor="middle" x="221.67" y="-393.8" font-family="Helvetica,sans-Serif" font-size="8.00" fill="#2e7d32">defines snapshot</text>
</g>
<!-- P2v2&#45;&gt;A75 -->
<g id="edge8" class="edge">
<title>P2v2&#45;&gt;A75</title>
<path fill="none" stroke="#555555" stroke-width="0.9" stroke-dasharray="5,2" d="M144.46,-372.62C176.34,-366.21 216.29,-357.76 251.67,-349 263.25,-346.13 275.36,-342.94 287.33,-339.66"/>
<polygon fill="#555555" stroke="#555555" stroke-width="0.9" points="287.81,-341.71 293.04,-338.09 286.69,-337.66 287.81,-341.71"/>
<text xml:space="preserve" text-anchor="middle" x="221.67" y="-364.02" font-family="Helvetica,sans-Serif" font-size="8.00">published on</text>
</g>
<!-- P3 -->
<g id="node5" class="node">
<title>P3</title>
<path fill="#e8f5e8" stroke="#2e7d32" stroke-width="1.1" d="M125.04,-223.2C125.04,-223.2 43.62,-223.2 43.62,-223.2 37.62,-223.2 31.62,-217.2 31.62,-211.2 31.62,-211.2 31.62,-190.8 31.62,-190.8 31.62,-184.8 37.62,-178.8 43.62,-178.8 43.62,-178.8 125.04,-178.8 125.04,-178.8 131.04,-178.8 137.04,-184.8 137.04,-190.8 137.04,-190.8 137.04,-211.2 137.04,-211.2 137.04,-217.2 131.04,-223.2 125.04,-223.2"/>
<text xml:space="preserve" text-anchor="start" x="78.33" y="-207.5" font-family="Helvetica,sans-Serif" font-weight="bold" font-size="10.00">P3</text>
<text xml:space="preserve" text-anchor="start" x="44.58" y="-197.5" font-family="Helvetica,sans-Serif" font-size="10.00">ontology&#45;grounded</text>
<text xml:space="preserve" text-anchor="start" x="67.08" y="-187.5" font-family="Helvetica,sans-Serif" font-size="10.00">retrieval</text>
</g>
<!-- A73 -->
<g id="node10" class="node">
<title>A73</title>
<path fill="#e8f5e8" stroke="#2e7d32" stroke-width="1.1" d="M439.46,-176.7C439.46,-176.7 325.04,-176.7 325.04,-176.7 319.04,-176.7 313.04,-170.7 313.04,-164.7 313.04,-164.7 313.04,-119.3 313.04,-119.3 313.04,-113.3 319.04,-107.3 325.04,-107.3 325.04,-107.3 439.46,-107.3 439.46,-107.3 445.46,-107.3 451.46,-113.3 451.46,-119.3 451.46,-119.3 451.46,-164.7 451.46,-164.7 451.46,-170.7 445.46,-176.7 439.46,-176.7"/>
<text xml:space="preserve" text-anchor="start" x="326" y="-161" font-family="Helvetica,sans-Serif" font-weight="bold" font-size="10.00">§7.3 Retrieval &amp; runtime</text>
<text xml:space="preserve" text-anchor="start" x="348.5" y="-151.95" font-family="Helvetica,sans-Serif" font-size="9.00">retrieval contract</text>
<text xml:space="preserve" text-anchor="start" x="344.75" y="-142.95" font-family="Helvetica,sans-Serif" font-size="9.00">runtime snapshots</text>
<text xml:space="preserve" text-anchor="start" x="335.38" y="-133.95" font-family="Helvetica,sans-Serif" font-size="9.00">context&#45;assembly rules</text>
<text xml:space="preserve" text-anchor="start" x="331.25" y="-124.95" font-family="Helvetica,sans-Serif" font-size="9.00">typed delivery envelopes</text>
<text xml:space="preserve" text-anchor="start" x="329.38" y="-115.95" font-family="Helvetica,sans-Serif" font-size="9.00">versioned runtime surface</text>
</g>
<!-- P3&#45;&gt;A73 -->
<g id="edge9" class="edge">
<title>P3&#45;&gt;A73</title>
<path fill="none" stroke="#555555" stroke-width="0.9" d="M137.56,-190.59C184.16,-181.3 252.98,-167.58 305.61,-157.08"/>
<polygon fill="#555555" stroke="#555555" stroke-width="0.9" points="305.79,-159.19 311.26,-155.96 304.97,-155.07 305.79,-159.19"/>
<text xml:space="preserve" text-anchor="middle" x="221.67" y="-179.92" font-family="Helvetica,sans-Serif" font-size="8.00" fill="#2e7d32">defines</text>
</g>
<!-- P3&#45;&gt;A75 -->
<g id="edge10" class="edge">
<title>P3&#45;&gt;A75</title>
<path fill="none" stroke="#555555" stroke-width="0.9" d="M137.34,-198.33C171.89,-198.82 217.1,-204 251.67,-224 271.14,-235.26 265.21,-249.82 282.67,-264 284.52,-265.5 286.42,-266.97 288.36,-268.4"/>
<polygon fill="#555555" stroke="#555555" stroke-width="0.9" points="287.1,-270.08 293.22,-271.83 289.53,-266.65 287.1,-270.08"/>
<text xml:space="preserve" text-anchor="middle" x="221.67" y="-225.4" font-family="Helvetica,sans-Serif" font-size="8.00">published on</text>
</g>
<!-- P5 -->
<g id="node6" class="node">
<title>P5</title>
<path fill="#ffe6e6" stroke="#b22222" stroke-width="1.1" d="M127.67,-161.2C127.67,-161.2 41,-161.2 41,-161.2 35,-161.2 29,-155.2 29,-149.2 29,-149.2 29,-120.8 29,-120.8 29,-114.8 35,-108.8 41,-108.8 41,-108.8 127.67,-108.8 127.67,-108.8 133.67,-108.8 139.67,-114.8 139.67,-120.8 139.67,-120.8 139.67,-149.2 139.67,-149.2 139.67,-155.2 133.67,-161.2 127.67,-161.2"/>
<text xml:space="preserve" text-anchor="start" x="78.33" y="-145.5" font-family="Helvetica,sans-Serif" font-weight="bold" font-size="10.00">P5</text>
<text xml:space="preserve" text-anchor="start" x="41.96" y="-135.5" font-family="Helvetica,sans-Serif" font-size="10.00">apparatus&#45;definition</text>
<text xml:space="preserve" text-anchor="start" x="60.71" y="-125.5" font-family="Helvetica,sans-Serif" font-size="10.00">companion</text>
<text xml:space="preserve" text-anchor="start" x="41.96" y="-117.4" font-family="Helvetica,sans-Serif" font-size="8.00">FROZEN · OSF KH8Y7</text>
</g>
<!-- A74 -->
<g id="node11" class="node">
<title>A74</title>
<path fill="#ffe6e6" stroke="#b22222" stroke-width="1.1" d="M439.46,-89.7C439.46,-89.7 325.04,-89.7 325.04,-89.7 319.04,-89.7 313.04,-83.7 313.04,-77.7 313.04,-77.7 313.04,-32.3 313.04,-32.3 313.04,-26.3 319.04,-20.3 325.04,-20.3 325.04,-20.3 439.46,-20.3 439.46,-20.3 445.46,-20.3 451.46,-26.3 451.46,-32.3 451.46,-32.3 451.46,-77.7 451.46,-77.7 451.46,-83.7 445.46,-89.7 439.46,-89.7"/>
<text xml:space="preserve" text-anchor="start" x="348.13" y="-74" font-family="Helvetica,sans-Serif" font-weight="bold" font-size="10.00">§7.4 Apparatus</text>
<text xml:space="preserve" text-anchor="start" x="326" y="-64.95" font-family="Helvetica,sans-Serif" font-size="9.00">MCP delivery tooling/server</text>
<text xml:space="preserve" text-anchor="start" x="353.75" y="-55.95" font-family="Helvetica,sans-Serif" font-size="9.00">build manifest</text>
<text xml:space="preserve" text-anchor="start" x="344.75" y="-46.95" font-family="Helvetica,sans-Serif" font-size="9.00">validation protocol</text>
<text xml:space="preserve" text-anchor="start" x="349.63" y="-37.95" font-family="Helvetica,sans-Serif" font-size="9.00">logging schema</text>
<text xml:space="preserve" text-anchor="start" x="326.75" y="-28.95" font-family="Helvetica,sans-Serif" font-size="9.00">execution&#45;support package</text>
</g>
<!-- P5&#45;&gt;A74 -->
<g id="edge11" class="edge">
<title>P5&#45;&gt;A74</title>
<path fill="none" stroke="#555555" stroke-width="0.9" d="M140.16,-121.71C172.66,-113.7 214.6,-103.11 251.67,-93 269.24,-88.21 288.08,-82.82 305.8,-77.65"/>
<polygon fill="#555555" stroke="#555555" stroke-width="0.9" points="306.32,-79.69 311.49,-75.98 305.14,-75.66 306.32,-79.69"/>
<text xml:space="preserve" text-anchor="middle" x="221.67" y="-110.01" font-family="Helvetica,sans-Serif" font-size="8.00" fill="#b22222">specifies</text>
</g>
<!-- P5&#45;&gt;A75 -->
<g id="edge12" class="edge">
<title>P5&#45;&gt;A75</title>
<path fill="none" stroke="#555555" stroke-width="0.9" d="M140.1,-127.17C175.86,-125.22 221.37,-129.13 251.67,-155 289.97,-187.7 250.32,-225.39 282.67,-264 284.66,-266.38 286.8,-268.65 289.06,-270.82"/>
<polygon fill="#555555" stroke="#555555" stroke-width="0.9" points="287.64,-272.37 293.52,-274.78 290.44,-269.23 287.64,-272.37"/>
<text xml:space="preserve" text-anchor="middle" x="221.67" y="-156.4" font-family="Helvetica,sans-Serif" font-size="8.00">registered on</text>
</g>
<!-- P4 -->
<g id="node7" class="node">
<title>P4</title>
<path fill="#ffe6e6" stroke="#b22222" stroke-width="1.1" d="M136.67,-91.2C136.67,-91.2 32,-91.2 32,-91.2 26,-91.2 20,-85.2 20,-79.2 20,-79.2 20,-50.8 20,-50.8 20,-44.8 26,-38.8 32,-38.8 32,-38.8 136.67,-38.8 136.67,-38.8 142.67,-38.8 148.67,-44.8 148.67,-50.8 148.67,-50.8 148.67,-79.2 148.67,-79.2 148.67,-85.2 142.67,-91.2 136.67,-91.2"/>
<text xml:space="preserve" text-anchor="start" x="78.33" y="-75.5" font-family="Helvetica,sans-Serif" font-weight="bold" font-size="10.00">P4</text>
<text xml:space="preserve" text-anchor="start" x="41.21" y="-65.5" font-family="Helvetica,sans-Serif" font-size="10.00">empirical evaluation</text>
<text xml:space="preserve" text-anchor="start" x="70.08" y="-55.5" font-family="Helvetica,sans-Serif" font-size="10.00">design</text>
<text xml:space="preserve" text-anchor="start" x="32.96" y="-47.4" font-family="Helvetica,sans-Serif" font-size="8.00">REGISTERED · OSF H5AJE</text>
</g>
<!-- P4&#45;&gt;A74 -->
<g id="edge13" class="edge">
<title>P4&#45;&gt;A74</title>
<path fill="none" stroke="#555555" stroke-width="0.9" stroke-dasharray="1,5" d="M149.04,-55.93C163.05,-54.3 177.84,-52.84 191.67,-52 229.09,-49.72 270.75,-50.06 305.45,-51.15"/>
<polygon fill="#555555" stroke="#555555" stroke-width="0.9" points="305.32,-53.24 311.39,-51.34 305.46,-49.05 305.32,-53.24"/>
<text xml:space="preserve" text-anchor="middle" x="221.67" y="-53.4" font-family="Helvetica,sans-Serif" font-size="8.00" fill="#b22222">consumes</text>
</g>
<!-- P4&#45;&gt;A75 -->
<g id="edge14" class="edge">
<title>P4&#45;&gt;A75</title>
<path fill="none" stroke="#555555" stroke-width="0.9" d="M149.05,-64.6C189.55,-65.75 237.04,-70.18 251.67,-84 310.68,-139.75 233.92,-199.09 282.67,-264 284.71,-266.71 286.94,-269.28 289.32,-271.71"/>
<polygon fill="#555555" stroke="#555555" stroke-width="0.9" points="287.63,-272.99 293.44,-275.57 290.5,-269.93 287.63,-272.99"/>
<text xml:space="preserve" text-anchor="middle" x="221.67" y="-85.4" font-family="Helvetica,sans-Serif" font-size="8.00">registered on</text>
</g>
</g>
</svg>
