<?xml version="1.0" encoding="UTF-8" standalone="no"?>
<!DOCTYPE svg PUBLIC "-//W3C//DTD SVG 1.1//EN"
 "http://www.w3.org/Graphics/SVG/1.1/DTD/svg11.dtd">
<!-- Generated by graphviz version 14.0.4 (20251115.1723)
 -->
<!-- Title: layer_flow Pages: 1 -->
<svg width="307pt" height="562pt"
 viewBox="0.00 0.00 307.00 562.00" xmlns="http://www.w3.org/2000/svg" xmlns:xlink="http://www.w3.org/1999/xlink">
<g id="graph0" class="graph" transform="scale(1 1) rotate(0) translate(4 557.6)">
<title>layer_flow</title>
<!-- layer1 -->
<g id="node1" class="node">
<title>layer1</title>
<path fill="#eeeeee" stroke="#888888" stroke-width="1.2" d="M257.25,-553.6C257.25,-553.6 41.25,-553.6 41.25,-553.6 35.25,-553.6 29.25,-547.6 29.25,-541.6 29.25,-541.6 29.25,-494 29.25,-494 29.25,-488 35.25,-482 41.25,-482 41.25,-482 257.25,-482 257.25,-482 263.25,-482 269.25,-488 269.25,-494 269.25,-494 269.25,-541.6 269.25,-541.6 269.25,-547.6 263.25,-553.6 257.25,-553.6"/>
<text xml:space="preserve" text-anchor="start" x="47.25" y="-533.35" font-family="Helvetica,sans-Serif" font-weight="bold" font-size="11.00">Layer 1 — Human framework &amp; manual</text>
<text xml:space="preserve" text-anchor="start" x="70.12" y="-523.3" font-family="Helvetica,sans-Serif" font-style="italic" font-size="10.00">source&#45;grounded authoring discipline</text>
<text xml:space="preserve" text-anchor="start" x="83.62" y="-503.25" font-family="Helvetica,sans-Serif" font-size="9.00">artifact: SbD&#45;ToE manual corpus</text>
<text xml:space="preserve" text-anchor="start" x="86.25" y="-494.25" font-family="Helvetica,sans-Serif" font-size="9.00">CC BY&#45;SA 4.0 · IGAC 949/2025</text>
</g>
<!-- layer2 -->
<g id="node2" class="node">
<title>layer2</title>
<path fill="#fff8dc" stroke="#b8860b" stroke-width="1.2" d="M254.62,-450C254.62,-450 43.88,-450 43.88,-450 37.88,-450 31.88,-444 31.88,-438 31.88,-438 31.88,-399.4 31.88,-399.4 31.88,-393.4 37.88,-387.4 43.88,-387.4 43.88,-387.4 254.62,-387.4 254.62,-387.4 260.62,-387.4 266.62,-393.4 266.62,-399.4 266.62,-399.4 266.62,-438 266.62,-438 266.62,-444 260.62,-450 254.62,-450"/>
<text xml:space="preserve" text-anchor="start" x="98.62" y="-429.75" font-family="Helvetica,sans-Serif" font-weight="bold" font-size="11.00">Layer 2 — SbD&#45;ToE</text>
<text xml:space="preserve" text-anchor="start" x="49.88" y="-419.7" font-family="Helvetica,sans-Serif" font-style="italic" font-size="10.00">prescriptive manual + knowledge organisation</text>
<text xml:space="preserve" text-anchor="start" x="64.5" y="-399.65" font-family="Helvetica,sans-Serif" font-size="9.00">public surface: www.securitybydesign.dev</text>
</g>
<!-- layer1&#45;&gt;layer2 -->
<g id="edge1" class="edge">
<title>layer1&#45;&gt;layer2</title>
<path fill="none" stroke="black" stroke-width="1.2" d="M149.25,-481.47C149.25,-474.46 149.25,-467.05 149.25,-459.9"/>
<polygon fill="black" stroke="black" stroke-width="1.2" points="152.05,-460.17 149.25,-452.17 146.45,-460.17 152.05,-460.17"/>
</g>
<!-- layer3 -->
<g id="node3" class="node">
<title>layer3</title>
<path fill="#e6f2ff" stroke="#1f4e79" stroke-width="1.2" d="M279,-355.4C279,-355.4 19.5,-355.4 19.5,-355.4 13.5,-355.4 7.5,-349.4 7.5,-343.4 7.5,-343.4 7.5,-304.8 7.5,-304.8 7.5,-298.8 13.5,-292.8 19.5,-292.8 19.5,-292.8 279,-292.8 279,-292.8 285,-292.8 291,-298.8 291,-304.8 291,-304.8 291,-343.4 291,-343.4 291,-349.4 285,-355.4 279,-355.4"/>
<text xml:space="preserve" text-anchor="start" x="87" y="-335.15" font-family="Helvetica,sans-Serif" font-weight="bold" font-size="11.00">Layer 3 — AppSec Core</text>
<text xml:space="preserve" text-anchor="start" x="25.5" y="-325.1" font-family="Helvetica,sans-Serif" font-style="italic" font-size="10.00">normalized ontology for application&#45;security requirements</text>
<text xml:space="preserve" text-anchor="start" x="58.5" y="-305.05" font-family="Helvetica,sans-Serif" font-weight="bold" font-size="9.00">P1</text>
<text xml:space="preserve" text-anchor="start" x="69.75" y="-305.05" font-family="Helvetica,sans-Serif" font-size="9.00"> · </text>
<text xml:space="preserve" text-anchor="start" x="76.5" y="-305.05" font-family="Helvetica,sans-Serif" font-weight="bold" font-size="9.00">P1 companion</text>
<text xml:space="preserve" text-anchor="start" x="137.25" y="-305.05" font-family="Helvetica,sans-Serif" font-size="9.00">    </text>
<text xml:space="preserve" text-anchor="start" x="146.25" y="-305.05" font-family="Helvetica,sans-Serif" font-size="9.00" fill="#1f4e79">[Ontology Engineering]</text>
</g>
<!-- layer2&#45;&gt;layer3 -->
<g id="edge2" class="edge">
<title>layer2&#45;&gt;layer3</title>
<path fill="none" stroke="black" stroke-width="1.2" d="M149.25,-386.87C149.25,-379.99 149.25,-372.61 149.25,-365.42"/>
<polygon fill="black" stroke="black" stroke-width="1.2" points="152.05,-365.62 149.25,-357.62 146.45,-365.62 152.05,-365.62"/>
</g>
<!-- layer4 -->
<g id="node4" class="node">
<title>layer4</title>
<path fill="#e8f5e8" stroke="#2e7d32" stroke-width="1.2" d="M286.5,-260.8C286.5,-260.8 12,-260.8 12,-260.8 6,-260.8 0,-254.8 0,-248.8 0,-248.8 0,-210.2 0,-210.2 0,-204.2 6,-198.2 12,-198.2 12,-198.2 286.5,-198.2 286.5,-198.2 292.5,-198.2 298.5,-204.2 298.5,-210.2 298.5,-210.2 298.5,-248.8 298.5,-248.8 298.5,-254.8 292.5,-260.8 286.5,-260.8"/>
<text xml:space="preserve" text-anchor="start" x="89.62" y="-240.55" font-family="Helvetica,sans-Serif" font-weight="bold" font-size="11.00">Layer 4 — Compilation</text>
<text xml:space="preserve" text-anchor="start" x="18" y="-230.5" font-family="Helvetica,sans-Serif" font-style="italic" font-size="10.00">coverage&#45;preserving transformation into the normalized layer</text>
<text xml:space="preserve" text-anchor="start" x="111.38" y="-210.45" font-family="Helvetica,sans-Serif" font-weight="bold" font-size="9.00">P2</text>
<text xml:space="preserve" text-anchor="start" x="122.62" y="-210.45" font-family="Helvetica,sans-Serif" font-size="9.00"> · </text>
<text xml:space="preserve" text-anchor="start" x="129.38" y="-210.45" font-family="Helvetica,sans-Serif" font-weight="bold" font-size="9.00">P2&#45;v2</text>
<text xml:space="preserve" text-anchor="start" x="154.12" y="-210.45" font-family="Helvetica,sans-Serif" font-size="9.00">    </text>
<text xml:space="preserve" text-anchor="start" x="163.12" y="-210.45" font-family="Helvetica,sans-Serif" font-size="9.00" fill="#2e7d32">[DSR]</text>
</g>
<!-- layer3&#45;&gt;layer4 -->
<g id="edge3" class="edge">
<title>layer3&#45;&gt;layer4</title>
<path fill="none" stroke="black" stroke-width="1.2" d="M149.25,-292.27C149.25,-285.39 149.25,-278.01 149.25,-270.82"/>
<polygon fill="black" stroke="black" stroke-width="1.2" points="152.05,-271.02 149.25,-263.02 146.45,-271.02 152.05,-271.02"/>
</g>
<!-- layer5 -->
<g id="node5" class="node">
<title>layer5</title>
<path fill="#e8f5e8" stroke="#2e7d32" stroke-width="1.2" d="M262.88,-166.2C262.88,-166.2 35.62,-166.2 35.62,-166.2 29.62,-166.2 23.62,-160.2 23.62,-154.2 23.62,-154.2 23.62,-115.6 23.62,-115.6 23.62,-109.6 29.62,-103.6 35.62,-103.6 35.62,-103.6 262.88,-103.6 262.88,-103.6 268.88,-103.6 274.88,-109.6 274.88,-115.6 274.88,-115.6 274.88,-154.2 274.88,-154.2 274.88,-160.2 268.88,-166.2 262.88,-166.2"/>
<text xml:space="preserve" text-anchor="start" x="58.12" y="-145.95" font-family="Helvetica,sans-Serif" font-weight="bold" font-size="11.00">Layer 5 — Retrieval &amp; machine use</text>
<text xml:space="preserve" text-anchor="start" x="41.62" y="-135.9" font-family="Helvetica,sans-Serif" font-style="italic" font-size="10.00">ontology&#45;grounded delivery contract (MCP&#45;based)</text>
<text xml:space="preserve" text-anchor="start" x="127.12" y="-115.85" font-family="Helvetica,sans-Serif" font-weight="bold" font-size="9.00">P3</text>
<text xml:space="preserve" text-anchor="start" x="138.38" y="-115.85" font-family="Helvetica,sans-Serif" font-size="9.00">    </text>
<text xml:space="preserve" text-anchor="start" x="147.38" y="-115.85" font-family="Helvetica,sans-Serif" font-size="9.00" fill="#2e7d32">[DSR]</text>
</g>
<!-- layer4&#45;&gt;layer5 -->
<g id="edge4" class="edge">
<title>layer4&#45;&gt;layer5</title>
<path fill="none" stroke="black" stroke-width="1.2" d="M149.25,-197.67C149.25,-190.79 149.25,-183.41 149.25,-176.22"/>
<polygon fill="black" stroke="black" stroke-width="1.2" points="152.05,-176.42 149.25,-168.42 146.45,-176.42 152.05,-176.42"/>
</g>
<!-- layer6 -->
<g id="node6" class="node">
<title>layer6</title>
<path fill="#ffe6e6" stroke="#b22222" stroke-width="1.2" d="M271.12,-71.6C271.12,-71.6 27.38,-71.6 27.38,-71.6 21.38,-71.6 15.38,-65.6 15.38,-59.6 15.38,-59.6 15.38,-12 15.38,-12 15.38,-6 21.38,0 27.38,0 27.38,0 271.12,0 271.12,0 277.12,0 283.12,-6 283.12,-12 283.12,-12 283.12,-59.6 283.12,-59.6 283.12,-65.6 277.12,-71.6 271.12,-71.6"/>
<text xml:space="preserve" text-anchor="start" x="60.38" y="-51.35" font-family="Helvetica,sans-Serif" font-weight="bold" font-size="11.00">Layer 6 — Apparatus &amp; evaluation</text>
<text xml:space="preserve" text-anchor="start" x="33.38" y="-41.3" font-family="Helvetica,sans-Serif" font-style="italic" font-size="10.00">evidence layer: transparency spec + empirical design</text>
<text xml:space="preserve" text-anchor="start" x="34.12" y="-21.25" font-family="Helvetica,sans-Serif" font-weight="bold" font-size="9.00">P5</text>
<text xml:space="preserve" text-anchor="start" x="45.38" y="-21.25" font-family="Helvetica,sans-Serif" font-size="9.00"> (apparatus, frozen) · </text>
<text xml:space="preserve" text-anchor="start" x="131.62" y="-21.25" font-family="Helvetica,sans-Serif" font-weight="bold" font-size="9.00">P4</text>
<text xml:space="preserve" text-anchor="start" x="142.88" y="-21.25" font-family="Helvetica,sans-Serif" font-size="9.00"> (empirical design, registered)</text>
<text xml:space="preserve" text-anchor="start" x="74.25" y="-12.25" font-family="Helvetica,sans-Serif" font-size="9.00" fill="#b22222">[ACM SIGSOFT Empirical Standards]</text>
</g>
<!-- layer5&#45;&gt;layer6 -->
<g id="edge5" class="edge">
<title>layer5&#45;&gt;layer6</title>
<path fill="none" stroke="black" stroke-width="1.2" d="M149.25,-103.18C149.25,-96.38 149.25,-89.04 149.25,-81.8"/>
<polygon fill="black" stroke="black" stroke-width="1.2" points="152.05,-81.88 149.25,-73.88 146.45,-81.88 152.05,-81.88"/>
</g>
</g>
</svg>
