<?xml version="1.0" encoding="UTF-8" standalone="no"?>
<!DOCTYPE svg PUBLIC "-//W3C//DTD SVG 1.1//EN"
 "http://www.w3.org/Graphics/SVG/1.1/DTD/svg11.dtd">
<!-- Generated by graphviz version 14.0.4 (20251115.1723)
 -->
<!-- Title: figure_1_pw8_sa11_multi_claim_alignment Pages: 1 -->
<svg width="2585pt" height="336pt"
 viewBox="0.00 0.00 2585.00 336.00" xmlns="http://www.w3.org/2000/svg" xmlns:xlink="http://www.w3.org/1999/xlink">
<g id="graph0" class="graph" transform="scale(1 1) rotate(0) translate(21.6 314.3)">
<title>figure_1_pw8_sa11_multi_claim_alignment</title>
<polygon fill="white" stroke="none" points="-21.6,21.6 -21.6,-314.3 2563.45,-314.3 2563.45,21.6 -21.6,21.6"/>
<g id="clust1" class="cluster">
<title>cluster_tier1</title>
</g>
<g id="clust3" class="cluster">
<title>cluster_tier2</title>
</g>
<g id="clust5" class="cluster">
<title>cluster_tier3</title>
</g>
<!-- figure_title -->
<g id="node1" class="node">
<title>figure_title</title>
<path fill="none" stroke="none" d="M515.85,-243.62C515.85,-243.62 12,-243.62 12,-243.62 6,-243.62 0,-237.62 0,-231.62 0,-231.62 0,-219.62 0,-219.62 0,-213.62 6,-207.62 12,-207.62 12,-207.62 515.85,-207.62 515.85,-207.62 521.85,-207.62 527.85,-213.62 527.85,-219.62 527.85,-219.62 527.85,-231.62 527.85,-231.62 527.85,-237.62 521.85,-243.62 515.85,-243.62"/>
<text xml:space="preserve" text-anchor="start" x="10.8" y="-223.12" font-family="STIX Two Text" font-weight="bold" font-size="10.00">Multi&#45;claim alignment: SSDF PW.8 ↔ SP800&#45;53 SA&#45;11 — frontier match captures alignment that strict misses</text>
</g>
<!-- entry_left -->
<g id="node2" class="node">
<title>entry_left</title>
<path fill="#f4f4f8" stroke="#1f4e79" stroke-width="2" d="M1019.35,-258.95C1019.35,-258.95 564.5,-258.95 564.5,-258.95 558.5,-258.95 552.5,-252.95 552.5,-246.95 552.5,-246.95 552.5,-204.3 552.5,-204.3 552.5,-198.3 558.5,-192.3 564.5,-192.3 564.5,-192.3 1019.35,-192.3 1019.35,-192.3 1025.35,-192.3 1031.35,-198.3 1031.35,-204.3 1031.35,-204.3 1031.35,-246.95 1031.35,-246.95 1031.35,-252.95 1025.35,-258.95 1019.35,-258.95"/>
<text xml:space="preserve" text-anchor="start" x="743.17" y="-239.25" font-family="STIX Two Text" font-weight="bold" font-size="10.00">ssdf_sp800_218_v1_1</text>
<text xml:space="preserve" text-anchor="start" x="732.67" y="-221.05" font-family="STIX Two Text" font-weight="bold" font-size="11.00">SSDF&#45;PRACTICE&#45;PW.8</text>
<text xml:space="preserve" text-anchor="start" x="567.3" y="-205.9" font-family="STIX Two Text" font-style="italic" font-size="8.00" fill="#555555">Test Executable Code to Identify Vulnerabilities and Verify Compliance with Security Requirements. Help identify vulnerabilities so that th…</text>
</g>
<!-- claim_left_1 -->
<g id="node4" class="node">
<title>claim_left_1</title>
<path fill="#e0e8f5" stroke="#2c3e50" stroke-dasharray="5,2" d="M640.32,-133.55C640.32,-133.55 563.52,-133.55 563.52,-133.55 557.52,-133.55 551.52,-127.55 551.52,-121.55 551.52,-121.55 551.52,-107.15 551.52,-107.15 551.52,-101.15 557.52,-95.15 563.52,-95.15 563.52,-95.15 640.32,-95.15 640.32,-95.15 646.32,-95.15 652.32,-101.15 652.32,-107.15 652.32,-107.15 652.32,-121.55 652.32,-121.55 652.32,-127.55 646.32,-133.55 640.32,-133.55"/>
<text xml:space="preserve" text-anchor="start" x="597.8" y="-119.75" font-family="STIX Two Text" font-weight="bold" font-size="8.00">M</text>
<text xml:space="preserve" text-anchor="start" x="571.17" y="-110.8" font-family="STIX Two Text" font-weight="bold" font-size="9.00">ACM&#45;SCBI&#45;002</text>
<text xml:space="preserve" text-anchor="start" x="587.3" y="-103.7" font-family="STIX Two Text" font-size="7.00" fill="#555555">sim 0.553</text>
</g>
<!-- entry_left&#45;&gt;claim_left_1 -->
<g id="edge1" class="edge">
<title>entry_left&#45;&gt;claim_left_1</title>
<path fill="none" stroke="#aaaaaa" stroke-dasharray="1,5" d="M723.12,-191.36C703.99,-181.54 683.4,-170.43 664.92,-159.3 653.63,-152.5 641.66,-144.39 631.23,-137.01"/>
<polygon fill="#aaaaaa" stroke="#aaaaaa" points="632.16,-135.95 628.09,-134.77 630.53,-138.23 632.16,-135.95"/>
</g>
<!-- claim_left_2 -->
<g id="node5" class="node">
<title>claim_left_2</title>
<path fill="#e0f0e0" stroke="#2c3e50" stroke-dasharray="5,2" d="M1018.33,-133.55C1018.33,-133.55 941.52,-133.55 941.52,-133.55 935.52,-133.55 929.52,-127.55 929.52,-121.55 929.52,-121.55 929.52,-107.15 929.52,-107.15 929.52,-101.15 935.52,-95.15 941.52,-95.15 941.52,-95.15 1018.33,-95.15 1018.33,-95.15 1024.33,-95.15 1030.33,-101.15 1030.33,-107.15 1030.33,-107.15 1030.33,-121.55 1030.33,-121.55 1030.33,-127.55 1024.33,-133.55 1018.33,-133.55"/>
<text xml:space="preserve" text-anchor="start" x="977.3" y="-119.75" font-family="STIX Two Text" font-weight="bold" font-size="8.00">P</text>
<text xml:space="preserve" text-anchor="start" x="952.92" y="-110.8" font-family="STIX Two Text" font-weight="bold" font-size="9.00">ACP&#45;TSV&#45;006</text>
<text xml:space="preserve" text-anchor="start" x="965.3" y="-103.7" font-family="STIX Two Text" font-size="7.00" fill="#555555">sim 0.542</text>
</g>
<!-- entry_left&#45;&gt;claim_left_2 -->
<g id="edge2" class="edge">
<title>entry_left&#45;&gt;claim_left_2</title>
<path fill="none" stroke="#aaaaaa" stroke-dasharray="1,5" d="M859.29,-191.42C878.21,-181.56 898.61,-170.41 916.92,-159.3 928.2,-152.46 940.16,-144.35 950.6,-136.97"/>
<polygon fill="#aaaaaa" stroke="#aaaaaa" points="951.29,-138.19 953.74,-134.73 949.67,-135.91 951.29,-138.19"/>
</g>
<!-- claim_left_3 -->
<g id="node6" class="node">
<title>claim_left_3</title>
<path fill="#e0e8f5" stroke="#2c3e50" stroke-dasharray="5,2" d="M514.33,-133.55C514.33,-133.55 437.53,-133.55 437.53,-133.55 431.53,-133.55 425.53,-127.55 425.53,-121.55 425.53,-121.55 425.53,-107.15 425.53,-107.15 425.53,-101.15 431.53,-95.15 437.53,-95.15 437.53,-95.15 514.33,-95.15 514.33,-95.15 520.33,-95.15 526.33,-101.15 526.33,-107.15 526.33,-107.15 526.33,-121.55 526.33,-121.55 526.33,-127.55 520.33,-133.55 514.33,-133.55"/>
<text xml:space="preserve" text-anchor="start" x="471.8" y="-119.75" font-family="STIX Two Text" font-weight="bold" font-size="8.00">M</text>
<text xml:space="preserve" text-anchor="start" x="446.68" y="-110.8" font-family="STIX Two Text" font-weight="bold" font-size="9.00">ACM&#45;SLG&#45;005</text>
<text xml:space="preserve" text-anchor="start" x="461.3" y="-103.7" font-family="STIX Two Text" font-size="7.00" fill="#555555">sim 0.460</text>
</g>
<!-- entry_left&#45;&gt;claim_left_3 -->
<g id="edge3" class="edge">
<title>entry_left&#45;&gt;claim_left_3</title>
<path fill="none" stroke="#aaaaaa" stroke-dasharray="1,5" d="M627.67,-191.33C597.49,-182.68 566.75,-172.09 538.92,-159.3 526.2,-153.45 513.3,-145 502.53,-137.07"/>
<polygon fill="#aaaaaa" stroke="#aaaaaa" points="503.61,-136.13 499.57,-134.85 501.93,-138.37 503.61,-136.13"/>
</g>
<!-- claim_left_4 -->
<g id="node7" class="node">
<title>claim_left_4</title>
<path fill="#fef6e0" stroke="#a83232" stroke-width="2.5" d="M766.32,-133.55C766.32,-133.55 689.52,-133.55 689.52,-133.55 683.52,-133.55 677.52,-127.55 677.52,-121.55 677.52,-121.55 677.52,-107.15 677.52,-107.15 677.52,-101.15 683.52,-95.15 689.52,-95.15 689.52,-95.15 766.32,-95.15 766.32,-95.15 772.32,-95.15 778.32,-101.15 778.32,-107.15 778.32,-107.15 778.32,-121.55 778.32,-121.55 778.32,-127.55 772.32,-133.55 766.32,-133.55"/>
<text xml:space="preserve" text-anchor="start" x="722.3" y="-119.75" font-family="STIX Two Text" font-weight="bold" font-size="8.00">CO</text>
<text xml:space="preserve" text-anchor="start" x="698.3" y="-110.8" font-family="STIX Two Text" font-weight="bold" font-size="9.00">ACO&#45;SCBI&#45;004</text>
<text xml:space="preserve" text-anchor="start" x="713.3" y="-103.7" font-family="STIX Two Text" font-size="7.00" fill="#555555">sim 0.448</text>
</g>
<!-- entry_left&#45;&gt;claim_left_4 -->
<g id="edge4" class="edge">
<title>entry_left&#45;&gt;claim_left_4</title>
<path fill="none" stroke="#aaaaaa" stroke-dasharray="1,5" d="M772.55,-191.54C762.68,-174.69 750.9,-154.58 741.93,-139.26"/>
<polygon fill="#aaaaaa" stroke="#aaaaaa" points="743.23,-138.71 740,-135.97 740.81,-140.13 743.23,-138.71"/>
</g>
<!-- claim_left_5 -->
<g id="node8" class="node">
<title>claim_left_5</title>
<path fill="#e0f0e0" stroke="#2c3e50" stroke-dasharray="5,2" d="M892.32,-133.55C892.32,-133.55 815.52,-133.55 815.52,-133.55 809.52,-133.55 803.52,-127.55 803.52,-121.55 803.52,-121.55 803.52,-107.15 803.52,-107.15 803.52,-101.15 809.52,-95.15 815.52,-95.15 815.52,-95.15 892.32,-95.15 892.32,-95.15 898.32,-95.15 904.32,-101.15 904.32,-107.15 904.32,-107.15 904.32,-121.55 904.32,-121.55 904.32,-127.55 898.32,-133.55 892.32,-133.55"/>
<text xml:space="preserve" text-anchor="start" x="851.3" y="-119.75" font-family="STIX Two Text" font-weight="bold" font-size="8.00">P</text>
<text xml:space="preserve" text-anchor="start" x="824.67" y="-110.8" font-family="STIX Two Text" font-weight="bold" font-size="9.00">ACP&#45;SCBI&#45;002</text>
<text xml:space="preserve" text-anchor="start" x="839.3" y="-103.7" font-family="STIX Two Text" font-size="7.00" fill="#555555">sim 0.445</text>
</g>
<!-- entry_left&#45;&gt;claim_left_5 -->
<g id="edge5" class="edge">
<title>entry_left&#45;&gt;claim_left_5</title>
<path fill="none" stroke="#aaaaaa" stroke-dasharray="1,5" d="M810.7,-191.54C820.39,-174.46 831.97,-154.04 840.71,-138.64"/>
<polygon fill="#aaaaaa" stroke="#aaaaaa" points="841.82,-139.51 842.58,-135.34 839.39,-138.13 841.82,-139.51"/>
</g>
<!-- entry_right -->
<g id="node3" class="node">
<title>entry_right</title>
<path fill="#f4f4f8" stroke="#2e6f40" stroke-width="2" d="M1521.97,-258.95C1521.97,-258.95 1067.88,-258.95 1067.88,-258.95 1061.88,-258.95 1055.88,-252.95 1055.88,-246.95 1055.88,-246.95 1055.88,-204.3 1055.88,-204.3 1055.88,-198.3 1061.88,-192.3 1067.88,-192.3 1067.88,-192.3 1521.97,-192.3 1521.97,-192.3 1527.97,-192.3 1533.97,-198.3 1533.97,-204.3 1533.97,-204.3 1533.97,-246.95 1533.97,-246.95 1533.97,-252.95 1527.97,-258.95 1521.97,-258.95"/>
<text xml:space="preserve" text-anchor="start" x="1249.55" y="-239.25" font-family="STIX Two Text" font-weight="bold" font-size="10.00">nist_sp800_53_rev5</text>
<text xml:space="preserve" text-anchor="start" x="1257.42" y="-221.05" font-family="STIX Two Text" font-weight="bold" font-size="11.00">SP800&#45;53&#45;SA&#45;11</text>
<text xml:space="preserve" text-anchor="start" x="1070.67" y="-205.9" font-family="STIX Two Text" font-style="italic" font-size="8.00" fill="#555555">Developer Testing and Evaluation. Require the developer of the system, system component, or system service, at all post&#45;design stages of th…</text>
</g>
<!-- claim_right_1 -->
<g id="node9" class="node">
<title>claim_right_1</title>
<path fill="#e0e8f5" stroke="#2c3e50" stroke-dasharray="5,2" d="M1144.33,-133.55C1144.33,-133.55 1067.52,-133.55 1067.52,-133.55 1061.52,-133.55 1055.52,-127.55 1055.52,-121.55 1055.52,-121.55 1055.52,-107.15 1055.52,-107.15 1055.52,-101.15 1061.52,-95.15 1067.52,-95.15 1067.52,-95.15 1144.33,-95.15 1144.33,-95.15 1150.33,-95.15 1156.33,-101.15 1156.33,-107.15 1156.33,-107.15 1156.33,-121.55 1156.33,-121.55 1156.33,-127.55 1150.33,-133.55 1144.33,-133.55"/>
<text xml:space="preserve" text-anchor="start" x="1101.8" y="-119.75" font-family="STIX Two Text" font-weight="bold" font-size="8.00">M</text>
<text xml:space="preserve" text-anchor="start" x="1077.42" y="-110.8" font-family="STIX Two Text" font-weight="bold" font-size="9.00">ACM&#45;TSV&#45;002</text>
<text xml:space="preserve" text-anchor="start" x="1091.3" y="-103.7" font-family="STIX Two Text" font-size="7.00" fill="#555555">sim 0.556</text>
</g>
<!-- entry_right&#45;&gt;claim_right_1 -->
<g id="edge6" class="edge">
<title>entry_right&#45;&gt;claim_right_1</title>
<path fill="none" stroke="#aaaaaa" stroke-dasharray="1,5" d="M1226.68,-191.3C1207.7,-181.49 1187.27,-170.39 1168.92,-159.3 1157.64,-152.48 1145.67,-144.37 1135.24,-136.99"/>
<polygon fill="#aaaaaa" stroke="#aaaaaa" points="1136.17,-135.93 1132.1,-134.75 1134.54,-138.21 1136.17,-135.93"/>
</g>
<!-- claim_right_2 -->
<g id="node10" class="node">
<title>claim_right_2</title>
<path fill="#fef6e0" stroke="#a83232" stroke-width="2.5" d="M1270.33,-133.55C1270.33,-133.55 1193.52,-133.55 1193.52,-133.55 1187.52,-133.55 1181.52,-127.55 1181.52,-121.55 1181.52,-121.55 1181.52,-107.15 1181.52,-107.15 1181.52,-101.15 1187.52,-95.15 1193.52,-95.15 1193.52,-95.15 1270.33,-95.15 1270.33,-95.15 1276.33,-95.15 1282.33,-101.15 1282.33,-107.15 1282.33,-107.15 1282.33,-121.55 1282.33,-121.55 1282.33,-127.55 1276.33,-133.55 1270.33,-133.55"/>
<text xml:space="preserve" text-anchor="start" x="1226.3" y="-119.75" font-family="STIX Two Text" font-weight="bold" font-size="8.00">CO</text>
<text xml:space="preserve" text-anchor="start" x="1201.92" y="-110.8" font-family="STIX Two Text" font-weight="bold" font-size="9.00">ACO&#45;TMR&#45;008</text>
<text xml:space="preserve" text-anchor="start" x="1217.3" y="-103.7" font-family="STIX Two Text" font-size="7.00" fill="#555555">sim 0.457</text>
</g>
<!-- entry_right&#45;&gt;claim_right_2 -->
<g id="edge7" class="edge">
<title>entry_right&#45;&gt;claim_right_2</title>
<path fill="none" stroke="#aaaaaa" stroke-dasharray="1,5" d="M1275.85,-191.54C1266.14,-174.69 1254.54,-154.58 1245.71,-139.26"/>
<polygon fill="#aaaaaa" stroke="#aaaaaa" points="1247.03,-138.74 1243.81,-135.97 1244.6,-140.14 1247.03,-138.74"/>
</g>
<!-- claim_right_3 -->
<g id="node11" class="node">
<title>claim_right_3</title>
<path fill="#e0e8f5" stroke="#2c3e50" stroke-dasharray="5,2" d="M1396.33,-133.55C1396.33,-133.55 1319.52,-133.55 1319.52,-133.55 1313.52,-133.55 1307.52,-127.55 1307.52,-121.55 1307.52,-121.55 1307.52,-107.15 1307.52,-107.15 1307.52,-101.15 1313.52,-95.15 1319.52,-95.15 1319.52,-95.15 1396.33,-95.15 1396.33,-95.15 1402.33,-95.15 1408.33,-101.15 1408.33,-107.15 1408.33,-107.15 1408.33,-121.55 1408.33,-121.55 1408.33,-127.55 1402.33,-133.55 1396.33,-133.55"/>
<text xml:space="preserve" text-anchor="start" x="1353.8" y="-119.75" font-family="STIX Two Text" font-weight="bold" font-size="8.00">M</text>
<text xml:space="preserve" text-anchor="start" x="1326.8" y="-110.8" font-family="STIX Two Text" font-weight="bold" font-size="9.00">ACM&#45;TMR&#45;007</text>
<text xml:space="preserve" text-anchor="start" x="1343.3" y="-103.7" font-family="STIX Two Text" font-size="7.00" fill="#555555">sim 0.456</text>
</g>
<!-- entry_right&#45;&gt;claim_right_3 -->
<g id="edge8" class="edge">
<title>entry_right&#45;&gt;claim_right_3</title>
<path fill="none" stroke="#aaaaaa" stroke-dasharray="1,5" d="M1314,-191.54C1323.84,-174.46 1335.62,-154.04 1344.5,-138.64"/>
<polygon fill="#aaaaaa" stroke="#aaaaaa" points="1345.62,-139.5 1346.4,-135.34 1343.19,-138.11 1345.62,-139.5"/>
</g>
<!-- claim_right_4 -->
<g id="node12" class="node">
<title>claim_right_4</title>
<path fill="lightgrey" stroke="black" d="M1502.35,-132.35C1502.35,-132.35 1445.5,-132.35 1445.5,-132.35 1439.5,-132.35 1433.5,-126.35 1433.5,-120.35 1433.5,-120.35 1433.5,-108.35 1433.5,-108.35 1433.5,-102.35 1439.5,-96.35 1445.5,-96.35 1445.5,-96.35 1502.35,-96.35 1502.35,-96.35 1508.35,-96.35 1514.35,-102.35 1514.35,-108.35 1514.35,-108.35 1514.35,-120.35 1514.35,-120.35 1514.35,-126.35 1508.35,-132.35 1502.35,-132.35"/>
<text xml:space="preserve" text-anchor="middle" x="1473.92" y="-110.47" font-family="STIX Two Text" font-size="10.00">claim_right_4</text>
</g>
<!-- entry_right&#45;&gt;claim_right_4 -->
<g id="edge9" class="edge">
<title>entry_right&#45;&gt;claim_right_4</title>
<path fill="none" stroke="#aaaaaa" stroke-dasharray="1,5" d="M1365.44,-191.44C1383.94,-181.83 1403.57,-170.8 1420.92,-159.3 1431.39,-152.37 1442.18,-143.73 1451.28,-135.95"/>
<polygon fill="#aaaaaa" stroke="#aaaaaa" points="1451.81,-137.34 1453.92,-133.66 1449.98,-135.22 1451.81,-137.34"/>
</g>
<!-- claim_right_5 -->
<g id="node13" class="node">
<title>claim_right_5</title>
<path fill="lightgrey" stroke="black" d="M1608.35,-132.35C1608.35,-132.35 1551.5,-132.35 1551.5,-132.35 1545.5,-132.35 1539.5,-126.35 1539.5,-120.35 1539.5,-120.35 1539.5,-108.35 1539.5,-108.35 1539.5,-102.35 1545.5,-96.35 1551.5,-96.35 1551.5,-96.35 1608.35,-96.35 1608.35,-96.35 1614.35,-96.35 1620.35,-102.35 1620.35,-108.35 1620.35,-108.35 1620.35,-120.35 1620.35,-120.35 1620.35,-126.35 1614.35,-132.35 1608.35,-132.35"/>
<text xml:space="preserve" text-anchor="middle" x="1579.92" y="-110.47" font-family="STIX Two Text" font-size="10.00">claim_right_5</text>
</g>
<!-- entry_right&#45;&gt;claim_right_5 -->
<g id="edge10" class="edge">
<title>entry_right&#45;&gt;claim_right_5</title>
<path fill="none" stroke="#aaaaaa" stroke-dasharray="1,5" d="M1447.9,-191.4C1475,-182.78 1502.38,-172.18 1526.92,-159.3 1538.49,-153.23 1549.84,-144.33 1559.05,-136.13"/>
<polygon fill="#aaaaaa" stroke="#aaaaaa" points="1559.99,-137.17 1562,-133.44 1558.1,-135.1 1559.99,-137.17"/>
</g>
<!-- slice_ACO_SCBI -->
<g id="node14" class="node">
<title>slice_ACO_SCBI</title>
<path fill="#f4f4f8" stroke="#2c3e50" stroke-width="1.5" d="M892.52,-52.7C892.52,-52.7 801.32,-52.7 801.32,-52.7 795.32,-52.7 789.32,-46.7 789.32,-40.7 789.32,-40.7 789.32,-28.7 789.32,-28.7 789.32,-22.7 795.32,-16.7 801.32,-16.7 801.32,-16.7 892.52,-16.7 892.52,-16.7 898.52,-16.7 904.52,-22.7 904.52,-28.7 904.52,-28.7 904.52,-40.7 904.52,-40.7 904.52,-46.7 898.52,-52.7 892.52,-52.7"/>
<text xml:space="preserve" text-anchor="start" x="825.55" y="-35.15" font-family="STIX Two Text" font-weight="bold" font-size="9.00">ACO&#45;SCBI</text>
<text xml:space="preserve" text-anchor="start" x="801.55" y="-28.05" font-family="STIX Two Text" font-style="italic" font-size="7.00" fill="#444444">Supply Chain &amp; Build Integrity</text>
</g>
<!-- claim_left_1&#45;&gt;slice_ACO_SCBI -->
<g id="edge11" class="edge">
<title>claim_left_1&#45;&gt;slice_ACO_SCBI</title>
<path fill="none" stroke="#5b6770" stroke-width="2.1" stroke-dasharray="5,2" d="M641.27,-94.72C648.97,-91.73 657.09,-89.01 664.92,-87.15 713.48,-75.64 729.45,-94.54 776.92,-79.15 791.1,-74.56 805.33,-66.51 817.22,-58.57"/>
<polygon fill="#5b6770" stroke="#5b6770" stroke-width="2.1" points="818.33,-60.36 822.07,-55.22 815.94,-56.91 818.33,-60.36"/>
</g>
<!-- slice_ACO_TSV -->
<g id="node17" class="node">
<title>slice_ACO_TSV</title>
<path fill="#ffd966" stroke="#2c3e50" stroke-width="2.5" d="M1032.52,-53.4C1032.52,-53.4 941.32,-53.4 941.32,-53.4 935.32,-53.4 929.32,-47.4 929.32,-41.4 929.32,-41.4 929.32,-28 929.32,-28 929.32,-22 935.32,-16 941.32,-16 941.32,-16 1032.52,-16 1032.52,-16 1038.52,-16 1044.52,-22 1044.52,-28 1044.52,-28 1044.52,-41.4 1044.52,-41.4 1044.52,-47.4 1038.52,-53.4 1032.52,-53.4"/>
<text xml:space="preserve" text-anchor="start" x="967.42" y="-38.65" font-family="STIX Two Text" font-weight="bold" font-size="9.00">ACO&#45;TSV</text>
<text xml:space="preserve" text-anchor="start" x="946.8" y="-31.55" font-family="STIX Two Text" font-style="italic" font-size="7.00" fill="#444444">Testing, Security Validation</text>
<text xml:space="preserve" text-anchor="start" x="965.92" y="-24.55" font-family="STIX Two Text" font-weight="bold" font-size="7.00" fill="#7a4900">★ frontier ★</text>
</g>
<!-- claim_left_2&#45;&gt;slice_ACO_TSV -->
<g id="edge12" class="edge">
<title>claim_left_2&#45;&gt;slice_ACO_TSV</title>
<path fill="none" stroke="#5b6770" stroke-width="2.1" stroke-dasharray="5,2" d="M981.58,-94.95C982.43,-85.51 983.49,-73.83 984.43,-63.34"/>
<polygon fill="#5b6770" stroke="#5b6770" stroke-width="2.1" points="986.5,-63.84 984.94,-57.67 982.31,-63.46 986.5,-63.84"/>
</g>
<!-- slice_ACO_SLG -->
<g id="node15" class="node">
<title>slice_ACO_SLG</title>
<path fill="#f4f4f8" stroke="#2c3e50" stroke-width="1.5" d="M752.52,-52.7C752.52,-52.7 661.32,-52.7 661.32,-52.7 655.32,-52.7 649.32,-46.7 649.32,-40.7 649.32,-40.7 649.32,-28.7 649.32,-28.7 649.32,-22.7 655.32,-16.7 661.32,-16.7 661.32,-16.7 752.52,-16.7 752.52,-16.7 758.52,-16.7 764.52,-22.7 764.52,-28.7 764.52,-28.7 764.52,-40.7 764.52,-40.7 764.52,-46.7 758.52,-52.7 752.52,-52.7"/>
<text xml:space="preserve" text-anchor="start" x="687.05" y="-35.15" font-family="STIX Two Text" font-weight="bold" font-size="9.00">ACO&#45;SLG</text>
<text xml:space="preserve" text-anchor="start" x="662.67" y="-28.05" font-family="STIX Two Text" font-style="italic" font-size="7.00" fill="#444444">Security Logging &amp; Audit Trail</text>
</g>
<!-- claim_left_3&#45;&gt;slice_ACO_SLG -->
<g id="edge13" class="edge">
<title>claim_left_3&#45;&gt;slice_ACO_SLG</title>
<path fill="none" stroke="#5b6770" stroke-width="1.4" stroke-dasharray="5,2" d="M519.09,-94.75C525.69,-92.1 532.46,-89.48 538.92,-87.15 572.26,-75.15 609.93,-63.44 641.14,-54.24"/>
<polygon fill="#5b6770" stroke="#5b6770" stroke-width="1.4" points="641.73,-56.25 646.9,-52.55 640.55,-52.22 641.73,-56.25"/>
</g>
<!-- claim_left_4&#45;&gt;slice_ACO_SCBI -->
<g id="edge14" class="edge">
<title>claim_left_4&#45;&gt;slice_ACO_SCBI</title>
<path fill="none" stroke="#a83232" stroke-width="1.4" d="M757.65,-93.96C774.54,-82.93 795.75,-69.09 813.26,-57.67"/>
<polygon fill="#a83232" stroke="#a83232" stroke-width="1.4" points="814.37,-59.45 818.24,-54.42 812.07,-55.94 814.37,-59.45"/>
</g>
<!-- claim_left_5&#45;&gt;slice_ACO_SCBI -->
<g id="edge15" class="edge">
<title>claim_left_5&#45;&gt;slice_ACO_SCBI</title>
<path fill="none" stroke="#5b6770" stroke-width="1.3" stroke-dasharray="5,2" d="M852.27,-94.95C851.36,-84.84 850.21,-72.16 849.22,-61.12"/>
<polygon fill="#5b6770" stroke="#5b6770" stroke-width="1.3" points="851.33,-61.18 848.7,-55.4 847.15,-61.56 851.33,-61.18"/>
</g>
<!-- claim_right_1&#45;&gt;slice_ACO_TSV -->
<g id="edge16" class="edge">
<title>claim_right_1&#45;&gt;slice_ACO_TSV</title>
<path fill="none" stroke="#5b6770" stroke-width="2.2" stroke-dasharray="5,2" d="M1077.42,-94.75C1061.2,-84.17 1040.72,-70.8 1023.35,-59.47"/>
<polygon fill="#5b6770" stroke="#5b6770" stroke-width="2.2" points="1024.57,-57.76 1018.4,-56.24 1022.27,-61.27 1024.57,-57.76"/>
</g>
<!-- slice_ACO_TMR -->
<g id="node16" class="node">
<title>slice_ACO_TMR</title>
<path fill="#f4f4f8" stroke="#2c3e50" stroke-width="1.5" d="M1172.52,-52.7C1172.52,-52.7 1081.33,-52.7 1081.33,-52.7 1075.33,-52.7 1069.33,-46.7 1069.33,-40.7 1069.33,-40.7 1069.33,-28.7 1069.33,-28.7 1069.33,-22.7 1075.33,-16.7 1081.33,-16.7 1081.33,-16.7 1172.52,-16.7 1172.52,-16.7 1178.52,-16.7 1184.52,-22.7 1184.52,-28.7 1184.52,-28.7 1184.52,-40.7 1184.52,-40.7 1184.52,-46.7 1178.52,-52.7 1172.52,-52.7"/>
<text xml:space="preserve" text-anchor="start" x="1105.17" y="-35.15" font-family="STIX Two Text" font-weight="bold" font-size="9.00">ACO&#45;TMR</text>
<text xml:space="preserve" text-anchor="start" x="1091.67" y="-28.05" font-family="STIX Two Text" font-style="italic" font-size="7.00" fill="#444444">Threat Modeling &amp; Risk</text>
</g>
<!-- claim_right_2&#45;&gt;slice_ACO_TMR -->
<g id="edge17" class="edge">
<title>claim_right_2&#45;&gt;slice_ACO_TMR</title>
<path fill="none" stroke="#a83232" stroke-width="1.4" d="M1205.7,-93.96C1190.92,-83.03 1172.41,-69.34 1157.04,-57.97"/>
<polygon fill="#a83232" stroke="#a83232" stroke-width="1.4" points="1158.44,-56.4 1152.37,-54.52 1155.95,-59.77 1158.44,-56.4"/>
</g>
<!-- claim_right_3&#45;&gt;slice_ACO_TMR -->
<g id="edge18" class="edge">
<title>claim_right_3&#45;&gt;slice_ACO_TMR</title>
<path fill="none" stroke="#5b6770" stroke-width="1.4" stroke-dasharray="5,2" d="M1314.76,-94.75C1308.16,-92.1 1301.39,-89.48 1294.92,-87.15 1261.59,-75.15 1223.92,-63.44 1192.71,-54.24"/>
<polygon fill="#5b6770" stroke="#5b6770" stroke-width="1.4" points="1193.3,-52.22 1186.95,-52.55 1192.12,-56.25 1193.3,-52.22"/>
</g>
<!-- annotation_0 -->
<g id="node18" class="node">
<title>annotation_0</title>
<polygon fill="#fffbe6" stroke="#a83232" points="1824.69,-243.62 1559.16,-243.62 1559.16,-207.62 1830.69,-207.62 1830.69,-237.62 1824.69,-243.62"/>
<polyline fill="none" stroke="#a83232" points="1824.69,-243.62 1824.69,-237.62"/>
<polyline fill="none" stroke="#a83232" points="1830.69,-237.62 1824.69,-237.62"/>
<text xml:space="preserve" text-anchor="start" x="1567.8" y="-222.95" font-family="STIX Two Text" font-size="9.00">Strict primary CO match: </text>
<text xml:space="preserve" text-anchor="start" x="1666.8" y="-222.95" font-family="STIX Two Text" font-weight="bold" font-size="9.00">FAIL</text>
<text xml:space="preserve" text-anchor="start" x="1688.55" y="-222.95" font-family="STIX Two Text" font-size="9.00"> (ACO&#45;SCBI&#45;004 ≠ ACO&#45;TMR&#45;008)</text>
</g>
<!-- annotation_1 -->
<g id="node19" class="node">
<title>annotation_1</title>
<polygon fill="#fffbe6" stroke="#a83232" points="2067.69,-243.62 1856.16,-243.62 1856.16,-207.62 2073.69,-207.62 2073.69,-237.62 2067.69,-243.62"/>
<polyline fill="none" stroke="#a83232" points="2067.69,-243.62 2067.69,-237.62"/>
<polyline fill="none" stroke="#a83232" points="2073.69,-237.62 2067.69,-237.62"/>
<text xml:space="preserve" text-anchor="start" x="1864.8" y="-222.95" font-family="STIX Two Text" font-size="9.00">Slice&#45;primary match: </text>
<text xml:space="preserve" text-anchor="start" x="1946.55" y="-222.95" font-family="STIX Two Text" font-weight="bold" font-size="9.00">FAIL</text>
<text xml:space="preserve" text-anchor="start" x="1968.3" y="-222.95" font-family="STIX Two Text" font-size="9.00"> (different primary slices)</text>
</g>
<!-- annotation_2 -->
<g id="node20" class="node">
<title>annotation_2</title>
<polygon fill="#fffbe6" stroke="#1f6f3a" points="2357.32,-243.62 2098.54,-243.62 2098.54,-207.62 2363.32,-207.62 2363.32,-237.62 2357.32,-243.62"/>
<polyline fill="none" stroke="#1f6f3a" points="2357.32,-243.62 2357.32,-237.62"/>
<polyline fill="none" stroke="#1f6f3a" points="2363.32,-237.62 2357.32,-237.62"/>
<text xml:space="preserve" text-anchor="start" x="2107.18" y="-222.95" font-family="STIX Two Text" font-size="9.00">Frontier match: </text>
<text xml:space="preserve" text-anchor="start" x="2169.43" y="-222.95" font-family="STIX Two Text" font-weight="bold" font-size="9.00">TRUE</text>
<text xml:space="preserve" text-anchor="start" x="2194.93" y="-222.95" font-family="STIX Two Text" font-size="9.00"> (multi&#45;claim slice intersection: ACO&#45;TSV)</text>
</g>
<!-- legend -->
<g id="node21" class="node">
<title>legend</title>
<path fill="none" stroke="#888888" d="M2529.85,-277.7C2529.85,-277.7 2400,-277.7 2400,-277.7 2394,-277.7 2388,-271.7 2388,-265.7 2388,-265.7 2388,-185.55 2388,-185.55 2388,-179.55 2394,-173.55 2400,-173.55 2400,-173.55 2529.85,-173.55 2529.85,-173.55 2535.85,-173.55 2541.85,-179.55 2541.85,-185.55 2541.85,-185.55 2541.85,-265.7 2541.85,-265.7 2541.85,-271.7 2535.85,-277.7 2529.85,-277.7"/>
<text xml:space="preserve" text-anchor="start" x="2449.55" y="-258.95" font-family="STIX Two Text" font-weight="bold" font-size="9.00">Legend</text>
<text xml:space="preserve" text-anchor="start" x="2402.8" y="-243.15" font-family="STIX Two Text" font-size="8.00">━━ primary claim (CO&#45;level pref.)</text>
<text xml:space="preserve" text-anchor="start" x="2402.8" y="-225.15" font-family="STIX Two Text" font-size="8.00">┄┄ secondary claim (P/M&#45;level)</text>
<text xml:space="preserve" text-anchor="start" x="2402.8" y="-207.15" font-family="STIX Two Text" font-size="8.00">edge thickness ∝ similarity score</text>
<polygon fill="#ffd966" stroke="none" points="2400.8,-182.75 2400.8,-198.75 2527.05,-198.75 2527.05,-182.75 2400.8,-182.75"/>
<text xml:space="preserve" text-anchor="start" x="2402.8" y="-189.15" font-family="STIX Two Text" font-size="8.00">★ frontier intersection slice</text>
</g>
</g>
</svg>
