<?xml version="1.0" encoding="UTF-8" standalone="no"?>
<!DOCTYPE svg PUBLIC "-//W3C//DTD SVG 1.1//EN"
 "http://www.w3.org/Graphics/SVG/1.1/DTD/svg11.dtd">
<!-- Generated by graphviz version 14.0.4 (20251115.1723)
 -->
<!-- Title: figure_3_po2_ops15_genuine_divergence Pages: 1 -->
<svg width="2778pt" height="335pt"
 viewBox="0.00 0.00 2778.00 335.00" xmlns="http://www.w3.org/2000/svg" xmlns:xlink="http://www.w3.org/1999/xlink">
<g id="graph0" class="graph" transform="scale(1 1) rotate(0) translate(21.6 312.9)">
<title>figure_3_po2_ops15_genuine_divergence</title>
<polygon fill="white" stroke="none" points="-21.6,21.6 -21.6,-312.9 2756.45,-312.9 2756.45,21.6 -21.6,21.6"/>
<g id="clust1" class="cluster">
<title>cluster_tier1</title>
</g>
<g id="clust3" class="cluster">
<title>cluster_tier2</title>
</g>
<g id="clust5" class="cluster">
<title>cluster_tier3</title>
</g>
<!-- figure_title -->
<g id="node1" class="node">
<title>figure_title</title>
<path fill="none" stroke="none" d="M545.85,-242.23C545.85,-242.23 12,-242.23 12,-242.23 6,-242.23 0,-236.23 0,-230.23 0,-230.23 0,-218.23 0,-218.23 0,-212.23 6,-206.23 12,-206.23 12,-206.23 545.85,-206.23 545.85,-206.23 551.85,-206.23 557.85,-212.23 557.85,-218.23 557.85,-218.23 557.85,-230.23 557.85,-230.23 557.85,-236.23 551.85,-242.23 545.85,-242.23"/>
<text xml:space="preserve" text-anchor="start" x="10.8" y="-221.73" font-family="STIX Two Text" font-weight="bold" font-size="10.00">Multi&#45;claim alignment: SSDF PO.2 ↔ SCAGILE&#45;OPS&#45;15 — frontier match also FAILS (genuine semantic divergence)</text>
</g>
<!-- entry_left -->
<g id="node2" class="node">
<title>entry_left</title>
<path fill="#f4f4f8" stroke="#1f4e79" stroke-width="2" d="M1056.72,-257.55C1056.72,-257.55 595.12,-257.55 595.12,-257.55 589.12,-257.55 583.12,-251.55 583.12,-245.55 583.12,-245.55 583.12,-202.9 583.12,-202.9 583.12,-196.9 589.12,-190.9 595.12,-190.9 595.12,-190.9 1056.72,-190.9 1056.72,-190.9 1062.72,-190.9 1068.72,-196.9 1068.72,-202.9 1068.72,-202.9 1068.72,-245.55 1068.72,-245.55 1068.72,-251.55 1062.72,-257.55 1056.72,-257.55"/>
<text xml:space="preserve" text-anchor="start" x="777.17" y="-237.85" font-family="STIX Two Text" font-weight="bold" font-size="10.00">ssdf_sp800_218_v1_1</text>
<text xml:space="preserve" text-anchor="start" x="768.17" y="-219.65" font-family="STIX Two Text" font-weight="bold" font-size="11.00">SSDF&#45;PRACTICE&#45;PO.2</text>
<text xml:space="preserve" text-anchor="start" x="597.92" y="-204.5" font-family="STIX Two Text" font-style="italic" font-size="8.00" fill="#555555">Implement Roles and Responsibilities. Ensure that everyone inside and outside of the organization involved in the SDLC is prepared to perfo…</text>
</g>
<!-- claim_left_1 -->
<g id="node4" class="node">
<title>claim_left_1</title>
<path fill="#fef6e0" stroke="#a83232" stroke-width="2.5" d="M822.32,-132.15C822.32,-132.15 745.52,-132.15 745.52,-132.15 739.52,-132.15 733.52,-126.15 733.52,-120.15 733.52,-120.15 733.52,-105.75 733.52,-105.75 733.52,-99.75 739.52,-93.75 745.52,-93.75 745.52,-93.75 822.32,-93.75 822.32,-93.75 828.32,-93.75 834.32,-99.75 834.32,-105.75 834.32,-105.75 834.32,-120.15 834.32,-120.15 834.32,-126.15 828.32,-132.15 822.32,-132.15"/>
<text xml:space="preserve" text-anchor="start" x="778.3" y="-118.35" font-family="STIX Two Text" font-weight="bold" font-size="8.00">CO</text>
<text xml:space="preserve" text-anchor="start" x="753.92" y="-109.4" font-family="STIX Two Text" font-weight="bold" font-size="9.00">ACO&#45;TMR&#45;008</text>
<text xml:space="preserve" text-anchor="start" x="769.3" y="-102.3" font-family="STIX Two Text" font-size="7.00" fill="#555555">sim 0.428</text>
</g>
<!-- entry_left&#45;&gt;claim_left_1 -->
<g id="edge1" class="edge">
<title>entry_left&#45;&gt;claim_left_1</title>
<path fill="none" stroke="#aaaaaa" stroke-dasharray="1,5" d="M813.21,-190.14C806.79,-173.44 799.14,-153.53 793.27,-138.25"/>
<polygon fill="#aaaaaa" stroke="#aaaaaa" points="794.63,-137.91 791.89,-134.67 792.02,-138.91 794.63,-137.91"/>
</g>
<!-- claim_left_2 -->
<g id="node7" class="node">
<title>claim_left_2</title>
<path fill="lightgrey" stroke="black" d="M920.97,-130.95C920.97,-130.95 870.88,-130.95 870.88,-130.95 864.88,-130.95 858.88,-124.95 858.88,-118.95 858.88,-118.95 858.88,-106.95 858.88,-106.95 858.88,-100.95 864.88,-94.95 870.88,-94.95 870.88,-94.95 920.97,-94.95 920.97,-94.95 926.97,-94.95 932.97,-100.95 932.97,-106.95 932.97,-106.95 932.97,-118.95 932.97,-118.95 932.97,-124.95 926.97,-130.95 920.97,-130.95"/>
<text xml:space="preserve" text-anchor="middle" x="895.92" y="-109.08" font-family="STIX Two Text" font-size="10.00">claim_left_2</text>
</g>
<!-- entry_left&#45;&gt;claim_left_2 -->
<g id="edge2" class="edge">
<title>entry_left&#45;&gt;claim_left_2</title>
<path fill="none" stroke="#aaaaaa" stroke-dasharray="1,5" d="M847.12,-190.14C858.35,-172.61 871.84,-151.55 881.79,-136.02"/>
<polygon fill="#aaaaaa" stroke="#aaaaaa" points="882.96,-136.78 883.94,-132.66 880.6,-135.27 882.96,-136.78"/>
</g>
<!-- claim_left_3 -->
<g id="node8" class="node">
<title>claim_left_3</title>
<path fill="lightgrey" stroke="black" d="M1019.97,-130.95C1019.97,-130.95 969.88,-130.95 969.88,-130.95 963.88,-130.95 957.88,-124.95 957.88,-118.95 957.88,-118.95 957.88,-106.95 957.88,-106.95 957.88,-100.95 963.88,-94.95 969.88,-94.95 969.88,-94.95 1019.97,-94.95 1019.97,-94.95 1025.97,-94.95 1031.97,-100.95 1031.97,-106.95 1031.97,-106.95 1031.97,-118.95 1031.97,-118.95 1031.97,-124.95 1025.97,-130.95 1019.97,-130.95"/>
<text xml:space="preserve" text-anchor="middle" x="994.92" y="-109.08" font-family="STIX Two Text" font-size="10.00">claim_left_3</text>
</g>
<!-- entry_left&#45;&gt;claim_left_3 -->
<g id="edge3" class="edge">
<title>entry_left&#45;&gt;claim_left_3</title>
<path fill="none" stroke="#aaaaaa" stroke-dasharray="1,5" d="M893.6,-189.95C911.13,-180.38 929.65,-169.39 945.92,-157.9 955.55,-151.1 965.37,-142.65 973.67,-134.98"/>
<polygon fill="#aaaaaa" stroke="#aaaaaa" points="974.55,-136.08 976.51,-132.32 972.63,-134.03 974.55,-136.08"/>
</g>
<!-- claim_left_4 -->
<g id="node9" class="node">
<title>claim_left_4</title>
<path fill="lightgrey" stroke="black" d="M597.97,-130.95C597.97,-130.95 547.88,-130.95 547.88,-130.95 541.88,-130.95 535.88,-124.95 535.88,-118.95 535.88,-118.95 535.88,-106.95 535.88,-106.95 535.88,-100.95 541.88,-94.95 547.88,-94.95 547.88,-94.95 597.97,-94.95 597.97,-94.95 603.97,-94.95 609.97,-100.95 609.97,-106.95 609.97,-106.95 609.97,-118.95 609.97,-118.95 609.97,-124.95 603.97,-130.95 597.97,-130.95"/>
<text xml:space="preserve" text-anchor="middle" x="572.92" y="-109.08" font-family="STIX Two Text" font-size="10.00">claim_left_4</text>
</g>
<!-- entry_left&#45;&gt;claim_left_4 -->
<g id="edge4" class="edge">
<title>entry_left&#45;&gt;claim_left_4</title>
<path fill="none" stroke="#aaaaaa" stroke-dasharray="1,5" d="M693.76,-189.91C669.09,-181.21 644.11,-170.62 621.92,-157.9 611.17,-151.73 600.73,-142.9 592.27,-134.77"/>
<polygon fill="#aaaaaa" stroke="#aaaaaa" points="593.68,-134.2 589.85,-132.39 591.72,-136.19 593.68,-134.2"/>
</g>
<!-- claim_left_5 -->
<g id="node10" class="node">
<title>claim_left_5</title>
<path fill="lightgrey" stroke="black" d="M696.97,-130.95C696.97,-130.95 646.88,-130.95 646.88,-130.95 640.88,-130.95 634.88,-124.95 634.88,-118.95 634.88,-118.95 634.88,-106.95 634.88,-106.95 634.88,-100.95 640.88,-94.95 646.88,-94.95 646.88,-94.95 696.97,-94.95 696.97,-94.95 702.97,-94.95 708.97,-100.95 708.97,-106.95 708.97,-106.95 708.97,-118.95 708.97,-118.95 708.97,-124.95 702.97,-130.95 696.97,-130.95"/>
<text xml:space="preserve" text-anchor="middle" x="671.92" y="-109.08" font-family="STIX Two Text" font-size="10.00">claim_left_5</text>
</g>
<!-- entry_left&#45;&gt;claim_left_5 -->
<g id="edge5" class="edge">
<title>entry_left&#45;&gt;claim_left_5</title>
<path fill="none" stroke="#aaaaaa" stroke-dasharray="1,5" d="M768.59,-190.06C752.78,-180.25 735.86,-169.11 720.92,-157.9 711.66,-150.94 702.04,-142.6 693.81,-135.06"/>
<polygon fill="#aaaaaa" stroke="#aaaaaa" points="694.89,-134.15 691,-132.47 692.99,-136.21 694.89,-134.15"/>
</g>
<!-- entry_right -->
<g id="node3" class="node">
<title>entry_right</title>
<path fill="#f4f4f8" stroke="#7f5f30" stroke-width="2" d="M1508.1,-257.55C1508.1,-257.55 1105.75,-257.55 1105.75,-257.55 1099.75,-257.55 1093.75,-251.55 1093.75,-245.55 1093.75,-245.55 1093.75,-202.9 1093.75,-202.9 1093.75,-196.9 1099.75,-190.9 1105.75,-190.9 1105.75,-190.9 1508.1,-190.9 1508.1,-190.9 1514.1,-190.9 1520.1,-196.9 1520.1,-202.9 1520.1,-202.9 1520.1,-245.55 1520.1,-245.55 1520.1,-251.55 1514.1,-257.55 1508.1,-257.55"/>
<text xml:space="preserve" text-anchor="start" x="1260.05" y="-237.85" font-family="STIX Two Text" font-weight="bold" font-size="10.00">safecode_agile_2012</text>
<text xml:space="preserve" text-anchor="start" x="1262.67" y="-219.65" font-family="STIX Two Text" font-weight="bold" font-size="11.00">SCAGILE&#45;OPS&#45;15</text>
<text xml:space="preserve" text-anchor="start" x="1108.55" y="-204.5" font-family="STIX Two Text" font-style="italic" font-size="8.00" fill="#555555">Ensure all QA engineers have obtained secure testing training. Ensure all QA engineers have obtained secure testing training</text>
</g>
<!-- claim_right_1 -->
<g id="node5" class="node">
<title>claim_right_1</title>
<path fill="#fef6e0" stroke="#a83232" stroke-width="2.5" d="M1145.33,-132.15C1145.33,-132.15 1068.52,-132.15 1068.52,-132.15 1062.52,-132.15 1056.52,-126.15 1056.52,-120.15 1056.52,-120.15 1056.52,-105.75 1056.52,-105.75 1056.52,-99.75 1062.52,-93.75 1068.52,-93.75 1068.52,-93.75 1145.33,-93.75 1145.33,-93.75 1151.33,-93.75 1157.33,-99.75 1157.33,-105.75 1157.33,-105.75 1157.33,-120.15 1157.33,-120.15 1157.33,-126.15 1151.33,-132.15 1145.33,-132.15"/>
<text xml:space="preserve" text-anchor="start" x="1101.3" y="-118.35" font-family="STIX Two Text" font-weight="bold" font-size="8.00">CO</text>
<text xml:space="preserve" text-anchor="start" x="1079.55" y="-109.4" font-family="STIX Two Text" font-weight="bold" font-size="9.00">ACO&#45;TSV&#45;007</text>
<text xml:space="preserve" text-anchor="start" x="1092.3" y="-102.3" font-family="STIX Two Text" font-size="7.00" fill="#555555">sim 0.558</text>
</g>
<!-- entry_right&#45;&gt;claim_right_1 -->
<g id="edge6" class="edge">
<title>entry_right&#45;&gt;claim_right_1</title>
<path fill="none" stroke="#aaaaaa" stroke-dasharray="1,5" d="M1231.47,-189.97C1211.14,-180.28 1189.4,-169.23 1169.92,-157.9 1158.83,-151.44 1147.17,-143.63 1136.94,-136.39"/>
<polygon fill="#aaaaaa" stroke="#aaaaaa" points="1137.96,-135.39 1133.89,-134.21 1136.33,-137.67 1137.96,-135.39"/>
</g>
<!-- claim_right_2 -->
<g id="node6" class="node">
<title>claim_right_2</title>
<path fill="#e0f0e0" stroke="#2c3e50" stroke-dasharray="5,2" d="M1271.33,-132.15C1271.33,-132.15 1194.52,-132.15 1194.52,-132.15 1188.52,-132.15 1182.52,-126.15 1182.52,-120.15 1182.52,-120.15 1182.52,-105.75 1182.52,-105.75 1182.52,-99.75 1188.52,-93.75 1194.52,-93.75 1194.52,-93.75 1271.33,-93.75 1271.33,-93.75 1277.33,-93.75 1283.33,-99.75 1283.33,-105.75 1283.33,-105.75 1283.33,-120.15 1283.33,-120.15 1283.33,-126.15 1277.33,-132.15 1271.33,-132.15"/>
<text xml:space="preserve" text-anchor="start" x="1230.3" y="-118.35" font-family="STIX Two Text" font-weight="bold" font-size="8.00">P</text>
<text xml:space="preserve" text-anchor="start" x="1205.92" y="-109.4" font-family="STIX Two Text" font-weight="bold" font-size="9.00">ACP&#45;TSV&#45;005</text>
<text xml:space="preserve" text-anchor="start" x="1218.3" y="-102.3" font-family="STIX Two Text" font-size="7.00" fill="#555555">sim 0.512</text>
</g>
<!-- entry_right&#45;&gt;claim_right_2 -->
<g id="edge7" class="edge">
<title>entry_right&#45;&gt;claim_right_2</title>
<path fill="none" stroke="#aaaaaa" stroke-dasharray="1,5" d="M1284.52,-190.14C1272.86,-172.92 1258.89,-152.29 1248.43,-136.84"/>
<polygon fill="#aaaaaa" stroke="#aaaaaa" points="1249.82,-136.41 1246.42,-133.88 1247.51,-137.98 1249.82,-136.41"/>
</g>
<!-- claim_right_3 -->
<g id="node11" class="node">
<title>claim_right_3</title>
<path fill="lightgrey" stroke="black" d="M1377.35,-130.95C1377.35,-130.95 1320.5,-130.95 1320.5,-130.95 1314.5,-130.95 1308.5,-124.95 1308.5,-118.95 1308.5,-118.95 1308.5,-106.95 1308.5,-106.95 1308.5,-100.95 1314.5,-94.95 1320.5,-94.95 1320.5,-94.95 1377.35,-94.95 1377.35,-94.95 1383.35,-94.95 1389.35,-100.95 1389.35,-106.95 1389.35,-106.95 1389.35,-118.95 1389.35,-118.95 1389.35,-124.95 1383.35,-130.95 1377.35,-130.95"/>
<text xml:space="preserve" text-anchor="middle" x="1348.92" y="-109.08" font-family="STIX Two Text" font-size="10.00">claim_right_3</text>
</g>
<!-- entry_right&#45;&gt;claim_right_3 -->
<g id="edge8" class="edge">
<title>entry_right&#45;&gt;claim_right_3</title>
<path fill="none" stroke="#aaaaaa" stroke-dasharray="1,5" d="M1319.64,-190.14C1326.32,-172.76 1334.33,-151.91 1340.29,-136.42"/>
<polygon fill="#aaaaaa" stroke="#aaaaaa" points="1341.55,-137.03 1341.68,-132.8 1338.94,-136.03 1341.55,-137.03"/>
</g>
<!-- claim_right_4 -->
<g id="node12" class="node">
<title>claim_right_4</title>
<path fill="lightgrey" stroke="black" d="M1483.35,-130.95C1483.35,-130.95 1426.5,-130.95 1426.5,-130.95 1420.5,-130.95 1414.5,-124.95 1414.5,-118.95 1414.5,-118.95 1414.5,-106.95 1414.5,-106.95 1414.5,-100.95 1420.5,-94.95 1426.5,-94.95 1426.5,-94.95 1483.35,-94.95 1483.35,-94.95 1489.35,-94.95 1495.35,-100.95 1495.35,-106.95 1495.35,-106.95 1495.35,-118.95 1495.35,-118.95 1495.35,-124.95 1489.35,-130.95 1483.35,-130.95"/>
<text xml:space="preserve" text-anchor="middle" x="1454.92" y="-109.08" font-family="STIX Two Text" font-size="10.00">claim_right_4</text>
</g>
<!-- entry_right&#45;&gt;claim_right_4 -->
<g id="edge9" class="edge">
<title>entry_right&#45;&gt;claim_right_4</title>
<path fill="none" stroke="#aaaaaa" stroke-dasharray="1,5" d="M1356.83,-190.15C1371.55,-180.06 1387.56,-168.76 1401.92,-157.9 1411.69,-150.52 1422.12,-142.01 1431.12,-134.46"/>
<polygon fill="#aaaaaa" stroke="#aaaaaa" points="1431.57,-135.91 1433.73,-132.27 1429.77,-133.77 1431.57,-135.91"/>
</g>
<!-- claim_right_5 -->
<g id="node13" class="node">
<title>claim_right_5</title>
<path fill="lightgrey" stroke="black" d="M1589.35,-130.95C1589.35,-130.95 1532.5,-130.95 1532.5,-130.95 1526.5,-130.95 1520.5,-124.95 1520.5,-118.95 1520.5,-118.95 1520.5,-106.95 1520.5,-106.95 1520.5,-100.95 1526.5,-94.95 1532.5,-94.95 1532.5,-94.95 1589.35,-94.95 1589.35,-94.95 1595.35,-94.95 1601.35,-100.95 1601.35,-106.95 1601.35,-106.95 1601.35,-118.95 1601.35,-118.95 1601.35,-124.95 1595.35,-130.95 1589.35,-130.95"/>
<text xml:space="preserve" text-anchor="middle" x="1560.92" y="-109.08" font-family="STIX Two Text" font-size="10.00">claim_right_5</text>
</g>
<!-- entry_right&#45;&gt;claim_right_5 -->
<g id="edge10" class="edge">
<title>entry_right&#45;&gt;claim_right_5</title>
<path fill="none" stroke="#aaaaaa" stroke-dasharray="1,5" d="M1434.1,-189.96C1459.3,-181.16 1485.02,-170.51 1507.92,-157.9 1519.29,-151.64 1530.54,-142.8 1539.73,-134.68"/>
<polygon fill="#aaaaaa" stroke="#aaaaaa" points="1540.38,-135.98 1542.41,-132.26 1538.5,-133.9 1540.38,-135.98"/>
</g>
<!-- slice_ACO_TMR -->
<g id="node14" class="node">
<title>slice_ACO_TMR</title>
<path fill="#f4f4f8" stroke="#2c3e50" stroke-width="1.5" d="M1012.52,-52C1012.52,-52 921.32,-52 921.32,-52 915.32,-52 909.32,-46 909.32,-40 909.32,-40 909.32,-28 909.32,-28 909.32,-22 915.32,-16 921.32,-16 921.32,-16 1012.52,-16 1012.52,-16 1018.52,-16 1024.52,-22 1024.52,-28 1024.52,-28 1024.52,-40 1024.52,-40 1024.52,-46 1018.52,-52 1012.52,-52"/>
<text xml:space="preserve" text-anchor="start" x="945.17" y="-34.45" font-family="STIX Two Text" font-weight="bold" font-size="9.00">ACO&#45;TMR</text>
<text xml:space="preserve" text-anchor="start" x="931.67" y="-27.35" font-family="STIX Two Text" font-style="italic" font-size="7.00" fill="#444444">Threat Modeling &amp; Risk</text>
</g>
<!-- claim_left_1&#45;&gt;slice_ACO_TMR -->
<g id="edge11" class="edge">
<title>claim_left_1&#45;&gt;slice_ACO_TMR</title>
<path fill="none" stroke="#a83232" stroke-width="1.2" d="M829.63,-92.62C835.12,-90.3 840.65,-87.97 845.92,-85.75 869.51,-75.82 895.7,-64.83 917.66,-55.63"/>
<polygon fill="#a83232" stroke="#a83232" stroke-width="1.2" points="918.24,-57.66 922.96,-53.41 916.61,-53.79 918.24,-57.66"/>
</g>
<!-- slice_ACO_TSV -->
<g id="node15" class="node">
<title>slice_ACO_TSV</title>
<path fill="#f4f4f8" stroke="#2c3e50" stroke-width="1.5" d="M1152.52,-52C1152.52,-52 1061.33,-52 1061.33,-52 1055.33,-52 1049.33,-46 1049.33,-40 1049.33,-40 1049.33,-28 1049.33,-28 1049.33,-22 1055.33,-16 1061.33,-16 1061.33,-16 1152.52,-16 1152.52,-16 1158.52,-16 1164.52,-22 1164.52,-28 1164.52,-28 1164.52,-40 1164.52,-40 1164.52,-46 1158.52,-52 1152.52,-52"/>
<text xml:space="preserve" text-anchor="start" x="1087.42" y="-34.45" font-family="STIX Two Text" font-weight="bold" font-size="9.00">ACO&#45;TSV</text>
<text xml:space="preserve" text-anchor="start" x="1066.8" y="-27.35" font-family="STIX Two Text" font-style="italic" font-size="7.00" fill="#444444">Testing, Security Validation</text>
</g>
<!-- claim_right_1&#45;&gt;slice_ACO_TSV -->
<g id="edge12" class="edge">
<title>claim_right_1&#45;&gt;slice_ACO_TSV</title>
<path fill="none" stroke="#a83232" stroke-width="2.2" d="M1106.92,-92.53C1106.92,-83.22 1106.92,-71.92 1106.92,-61.8"/>
<polygon fill="#a83232" stroke="#a83232" stroke-width="2.2" points="1109.03,-61.9 1106.93,-55.9 1104.83,-61.9 1109.03,-61.9"/>
</g>
<!-- claim_right_2&#45;&gt;slice_ACO_TSV -->
<g id="edge13" class="edge">
<title>claim_right_2&#45;&gt;slice_ACO_TSV</title>
<path fill="none" stroke="#5b6770" stroke-width="1.8" stroke-dasharray="5,2" d="M1202.42,-93.32C1184.55,-82.41 1161.87,-68.55 1143.1,-57.09"/>
<polygon fill="#5b6770" stroke="#5b6770" stroke-width="1.8" points="1144.39,-55.42 1138.17,-54.08 1142.2,-59 1144.39,-55.42"/>
</g>
<!-- annotation_0 -->
<g id="node16" class="node">
<title>annotation_0</title>
<polygon fill="#fffbe6" stroke="#a83232" points="1806.44,-242.23 1545.41,-242.23 1545.41,-206.23 1812.44,-206.23 1812.44,-236.23 1806.44,-242.23"/>
<polyline fill="none" stroke="#a83232" points="1806.44,-242.23 1806.44,-236.23"/>
<polyline fill="none" stroke="#a83232" points="1812.44,-236.23 1806.44,-236.23"/>
<text xml:space="preserve" text-anchor="start" x="1554.05" y="-221.55" font-family="STIX Two Text" font-size="9.00">Strict primary CO match: </text>
<text xml:space="preserve" text-anchor="start" x="1653.05" y="-221.55" font-family="STIX Two Text" font-weight="bold" font-size="9.00">FAIL</text>
<text xml:space="preserve" text-anchor="start" x="1674.8" y="-221.55" font-family="STIX Two Text" font-size="9.00"> (ACO&#45;TMR&#45;008 ≠ ACO&#45;TSV&#45;007)</text>
</g>
<!-- annotation_1 -->
<g id="node17" class="node">
<title>annotation_1</title>
<polygon fill="#fffbe6" stroke="#a83232" points="1952.32,-242.23 1837.53,-242.23 1837.53,-206.23 1958.32,-206.23 1958.32,-236.23 1952.32,-242.23"/>
<polyline fill="none" stroke="#a83232" points="1952.32,-242.23 1952.32,-236.23"/>
<polyline fill="none" stroke="#a83232" points="1958.32,-236.23 1952.32,-236.23"/>
<text xml:space="preserve" text-anchor="start" x="1846.17" y="-221.55" font-family="STIX Two Text" font-size="9.00">Slice&#45;primary match: </text>
<text xml:space="preserve" text-anchor="start" x="1927.92" y="-221.55" font-family="STIX Two Text" font-weight="bold" font-size="9.00">FAIL</text>
</g>
<!-- annotation_2 -->
<g id="node18" class="node">
<title>annotation_2</title>
<polygon fill="#fffbe6" stroke="#a83232" points="2150.57,-242.23 1983.29,-242.23 1983.29,-206.23 2156.57,-206.23 2156.57,-236.23 2150.57,-242.23"/>
<polyline fill="none" stroke="#a83232" points="2150.57,-242.23 2150.57,-236.23"/>
<polyline fill="none" stroke="#a83232" points="2156.57,-236.23 2150.57,-236.23"/>
<text xml:space="preserve" text-anchor="start" x="1991.93" y="-221.55" font-family="STIX Two Text" font-size="9.00">Frontier match: </text>
<text xml:space="preserve" text-anchor="start" x="2054.18" y="-221.55" font-family="STIX Two Text" font-weight="bold" font-size="9.00">FAIL</text>
<text xml:space="preserve" text-anchor="start" x="2075.93" y="-221.55" font-family="STIX Two Text" font-size="9.00"> (slice sets disjoint)</text>
</g>
<!-- annotation_3 -->
<g id="node19" class="node">
<title>annotation_3</title>
<polygon fill="#fffbe6" stroke="#2c3e50" points="2550.44,-242.23 2181.41,-242.23 2181.41,-206.23 2556.44,-206.23 2556.44,-236.23 2550.44,-242.23"/>
<polyline fill="none" stroke="#2c3e50" points="2550.44,-242.23 2550.44,-236.23"/>
<polyline fill="none" stroke="#2c3e50" points="2556.44,-236.23 2550.44,-236.23"/>
<text xml:space="preserve" text-anchor="start" x="2190.05" y="-221.55" font-family="STIX Two Text" font-style="italic" font-size="9.00">Concept divergence: PO.2 = roles &amp; responsibilities (governance) ≠ OPS&#45;15 = QA testing training</text>
</g>
<!-- legend -->
<g id="node20" class="node">
<title>legend</title>
<path fill="none" stroke="#888888" d="M2722.85,-276.3C2722.85,-276.3 2593,-276.3 2593,-276.3 2587,-276.3 2581,-270.3 2581,-264.3 2581,-264.3 2581,-184.15 2581,-184.15 2581,-178.15 2587,-172.15 2593,-172.15 2593,-172.15 2722.85,-172.15 2722.85,-172.15 2728.85,-172.15 2734.85,-178.15 2734.85,-184.15 2734.85,-184.15 2734.85,-264.3 2734.85,-264.3 2734.85,-270.3 2728.85,-276.3 2722.85,-276.3"/>
<text xml:space="preserve" text-anchor="start" x="2642.55" y="-257.55" font-family="STIX Two Text" font-weight="bold" font-size="9.00">Legend</text>
<text xml:space="preserve" text-anchor="start" x="2595.8" y="-241.75" font-family="STIX Two Text" font-size="8.00">━━ primary claim (CO&#45;level pref.)</text>
<text xml:space="preserve" text-anchor="start" x="2595.8" y="-223.75" font-family="STIX Two Text" font-size="8.00">┄┄ secondary claim (P/M&#45;level)</text>
<text xml:space="preserve" text-anchor="start" x="2595.8" y="-205.75" font-family="STIX Two Text" font-size="8.00">edge thickness ∝ similarity score</text>
<polygon fill="#ffd966" stroke="none" points="2593.8,-181.35 2593.8,-197.35 2720.05,-197.35 2720.05,-181.35 2593.8,-181.35"/>
<text xml:space="preserve" text-anchor="start" x="2595.8" y="-187.75" font-family="STIX Two Text" font-size="8.00">★ frontier intersection slice</text>
</g>
</g>
</svg>
