<?xml version="1.0" encoding="UTF-8" standalone="no"?>
<!DOCTYPE svg PUBLIC "-//W3C//DTD SVG 1.1//EN"
 "http://www.w3.org/Graphics/SVG/1.1/DTD/svg11.dtd">
<!-- Generated by graphviz version 14.0.4 (20251115.1723)
 -->
<!-- Title: p8_pipeline_architecture Pages: 1 -->
<svg width="468pt" height="324pt"
 viewBox="0.00 0.00 468.00 324.00" xmlns="http://www.w3.org/2000/svg" xmlns:xlink="http://www.w3.org/1999/xlink">
<g id="graph0" class="graph" transform="scale(0.653823 0.653823) rotate(0) translate(4 491.9)">
<title>p8_pipeline_architecture</title>
<polygon fill="white" stroke="none" points="-4,4 -4,-491.9 711.79,-491.9 711.79,4 -4,4"/>
<!-- ES -->
<g id="node1" class="node">
<title>ES</title>
<path fill="white" stroke="#2c3e50" d="M228.92,-487.9C228.92,-487.9 31.12,-487.9 31.12,-487.9 25.12,-487.9 19.13,-481.9 19.13,-475.9 19.13,-475.9 19.13,-455.5 19.13,-455.5 19.13,-449.5 25.13,-443.5 31.13,-443.5 31.13,-443.5 228.92,-443.5 228.92,-443.5 234.92,-443.5 240.92,-449.5 240.92,-455.5 240.92,-455.5 240.92,-475.9 240.92,-475.9 240.92,-481.9 234.92,-487.9 228.92,-487.9"/>
<text xml:space="preserve" text-anchor="middle" x="130.02" y="-467.4" font-family="STIX Two Text" font-size="14.00">Stage 1 — External&#45;source corpus</text>
<text xml:space="preserve" text-anchor="middle" x="130.02" y="-452.4" font-family="STIX Two Text" font-size="14.00">31 sources</text>
</g>
<!-- P7 -->
<g id="node2" class="node">
<title>P7</title>
<path fill="white" stroke="#2c3e50" d="M229.29,-399.5C229.29,-399.5 30.75,-399.5 30.75,-399.5 24.75,-399.5 18.75,-393.5 18.75,-387.5 18.75,-387.5 18.75,-367.1 18.75,-367.1 18.75,-361.1 24.75,-355.1 30.75,-355.1 30.75,-355.1 229.29,-355.1 229.29,-355.1 235.29,-355.1 241.29,-361.1 241.29,-367.1 241.29,-367.1 241.29,-387.5 241.29,-387.5 241.29,-393.5 235.29,-399.5 229.29,-399.5"/>
<text xml:space="preserve" text-anchor="middle" x="130.02" y="-379" font-family="STIX Two Text" font-size="14.00">Stage 2 — Normalization pipeline</text>
<text xml:space="preserve" text-anchor="middle" x="130.02" y="-364" font-family="STIX Two Text" font-size="14.00">claim&#45;centric two&#45;stage</text>
</g>
<!-- ES&#45;&gt;P7 -->
<g id="edge1" class="edge">
<title>ES&#45;&gt;P7</title>
<path fill="none" stroke="#2c3e50" d="M130.02,-443.34C130.02,-433.58 130.02,-421.8 130.02,-410.96"/>
<polygon fill="#2c3e50" stroke="#2c3e50" points="133.52,-411.22 130.02,-401.22 126.52,-411.22 133.52,-411.22"/>
<text xml:space="preserve" text-anchor="middle" x="161.9" y="-417.05" font-family="STIX Two Text" font-size="11.00"> &#160;lift + ground</text>
</g>
<!-- SUB -->
<g id="node3" class="node">
<title>SUB</title>
<path fill="#e8f4f8" stroke="#2c3e50" d="M248.04,-311.1C248.04,-311.1 12,-311.1 12,-311.1 6,-311.1 0,-305.1 0,-299.1 0,-299.1 0,-278.7 0,-278.7 0,-272.7 6,-266.7 12,-266.7 12,-266.7 248.04,-266.7 248.04,-266.7 254.04,-266.7 260.04,-272.7 260.04,-278.7 260.04,-278.7 260.04,-299.1 260.04,-299.1 260.04,-305.1 254.04,-311.1 248.04,-311.1"/>
<text xml:space="preserve" text-anchor="middle" x="130.02" y="-290.6" font-family="STIX Two Text" font-size="14.00">Stage 3 — Normalized substrate</text>
<text xml:space="preserve" text-anchor="middle" x="130.02" y="-275.6" font-family="STIX Two Text" font-size="14.00">3,861 items · 18,673 GROUNDED claims</text>
</g>
<!-- P7&#45;&gt;SUB -->
<g id="edge2" class="edge">
<title>P7&#45;&gt;SUB</title>
<path fill="none" stroke="#2c3e50" d="M130.02,-354.94C130.02,-345.18 130.02,-333.4 130.02,-322.56"/>
<polygon fill="#2c3e50" stroke="#2c3e50" points="133.52,-322.82 130.02,-312.82 126.52,-322.82 133.52,-322.82"/>
<text xml:space="preserve" text-anchor="middle" x="163.4" y="-328.65" font-family="STIX Two Text" font-size="11.00"> &#160;claim&#45;centric</text>
</g>
<!-- V1 -->
<g id="node4" class="node">
<title>V1</title>
<path fill="#e8f4f8" stroke="#2c3e50" d="M224.04,-222.7C224.04,-222.7 12,-222.7 12,-222.7 6,-222.7 0,-216.7 0,-210.7 0,-210.7 0,-190.3 0,-190.3 0,-184.3 6,-178.3 12,-178.3 12,-178.3 224.04,-178.3 224.04,-178.3 230.04,-178.3 236.04,-184.3 236.04,-190.3 236.04,-190.3 236.04,-210.7 236.04,-210.7 236.04,-216.7 230.04,-222.7 224.04,-222.7"/>
<text xml:space="preserve" text-anchor="middle" x="118.02" y="-202.2" font-family="STIX Two Text" font-size="14.00">Stage 4 — AppSec Core V1 ontology</text>
<text xml:space="preserve" text-anchor="middle" x="118.02" y="-187.2" font-family="STIX Two Text" font-size="14.00">259 entities · 10 slices</text>
</g>
<!-- SUB&#45;&gt;V1 -->
<g id="edge3" class="edge">
<title>SUB&#45;&gt;V1</title>
<path fill="none" stroke="#2c3e50" d="M127.05,-266.54C125.7,-256.78 124.06,-245 122.56,-234.16"/>
<polygon fill="#2c3e50" stroke="#2c3e50" points="126.04,-233.83 121.2,-224.41 119.11,-234.8 126.04,-233.83"/>
<text xml:space="preserve" text-anchor="middle" x="185.49" y="-240.25" font-family="STIX Two Text" font-size="11.00"> &#160;bind via slice + entity IRI</text>
</g>
<!-- COV -->
<g id="node5" class="node">
<title>COV</title>
<path fill="#fff3e0" stroke="#2c3e50" d="M601.16,-132.8C601.16,-132.8 344.88,-132.8 344.88,-132.8 338.88,-132.8 332.88,-126.8 332.88,-120.8 332.88,-120.8 332.88,-100.4 332.88,-100.4 332.88,-94.4 338.88,-88.4 344.88,-88.4 344.88,-88.4 601.16,-88.4 601.16,-88.4 607.16,-88.4 613.16,-94.4 613.16,-100.4 613.16,-100.4 613.16,-120.8 613.16,-120.8 613.16,-126.8 607.16,-132.8 601.16,-132.8"/>
<text xml:space="preserve" text-anchor="middle" x="473.02" y="-112.3" font-family="STIX Two Text" font-size="14.00">Stage 5 — Manual coverage analysis</text>
<text xml:space="preserve" text-anchor="middle" x="473.02" y="-97.3" font-family="STIX Two Text" font-size="14.00">202 / 202 substantive · 38 reclassified via §26</text>
</g>
<!-- V1&#45;&gt;COV -->
<g id="edge4" class="edge">
<title>V1&#45;&gt;COV</title>
<path fill="none" stroke="#2c3e50" d="M184.55,-177.93C215.44,-168.32 252.79,-157.28 286.77,-148.8 305.44,-144.14 325.28,-139.67 344.79,-135.55"/>
<polygon fill="#2c3e50" stroke="#2c3e50" points="345.35,-139.01 354.42,-133.54 343.92,-132.16 345.35,-139.01"/>
<text xml:space="preserve" text-anchor="middle" x="340.39" y="-151.85" font-family="STIX Two Text" font-size="11.00"> &#160;V1 → Manual analysis</text>
</g>
<!-- FROZ -->
<g id="node6" class="node">
<title>FROZ</title>
<path fill="#dceadc" stroke="#2c3e50" d="M409.91,-44.4C409.91,-44.4 206.12,-44.4 206.12,-44.4 200.12,-44.4 194.12,-38.4 194.12,-32.4 194.12,-32.4 194.12,-12 194.12,-12 194.12,-6 200.12,0 206.12,0 206.12,0 409.91,0 409.91,0 415.91,0 421.91,-6 421.91,-12 421.91,-12 421.91,-32.4 421.91,-32.4 421.91,-38.4 415.91,-44.4 409.91,-44.4"/>
<text xml:space="preserve" text-anchor="middle" x="308.02" y="-23.9" font-family="STIX Two Text" font-size="14.00">Stage 7 — Cycle B frozen snapshot</text>
<text xml:space="preserve" text-anchor="middle" x="308.02" y="-8.9" font-family="STIX Two Text" font-size="14.00">tag cycle&#45;b&#45;frozen&#45;2026&#45;05&#45;12</text>
</g>
<!-- V1&#45;&gt;FROZ -->
<g id="edge8" class="edge">
<title>V1&#45;&gt;FROZ</title>
<path fill="none" stroke="#7f8c8d" stroke-dasharray="5,2" d="M128.57,-178.12C141.26,-154.03 164.49,-114.79 193.02,-88.4 209.23,-73.41 229.5,-60.48 248.49,-50.17"/>
<polygon fill="#7f8c8d" stroke="#7f8c8d" points="250,-53.33 257.23,-45.58 246.75,-47.13 250,-53.33"/>
<text xml:space="preserve" text-anchor="middle" x="217.02" y="-106.15" font-family="STIX Two Text" font-size="11.00" fill="#7f8c8d">V1 anchor</text>
</g>
<!-- COV&#45;&gt;FROZ -->
<g id="edge5" class="edge">
<title>COV&#45;&gt;FROZ</title>
<path fill="none" stroke="#2c3e50" d="M431.81,-88.02C409.86,-76.53 382.65,-62.28 359.34,-50.07"/>
<polygon fill="#2c3e50" stroke="#2c3e50" points="361.1,-47.04 350.62,-45.51 357.85,-53.25 361.1,-47.04"/>
<text xml:space="preserve" text-anchor="middle" x="444.65" y="-61.95" font-family="STIX Two Text" font-size="11.00"> &#160;empirical findings</text>
</g>
<!-- MAN -->
<g id="node7" class="node">
<title>MAN</title>
<path fill="#fff3e0" stroke="#2c3e50" d="M483.79,-222.7C483.79,-222.7 270.25,-222.7 270.25,-222.7 264.25,-222.7 258.25,-216.7 258.25,-210.7 258.25,-210.7 258.25,-190.3 258.25,-190.3 258.25,-184.3 264.25,-178.3 270.25,-178.3 270.25,-178.3 483.79,-178.3 483.79,-178.3 489.79,-178.3 495.79,-184.3 495.79,-190.3 495.79,-190.3 495.79,-210.7 495.79,-210.7 495.79,-216.7 489.79,-222.7 483.79,-222.7"/>
<text xml:space="preserve" text-anchor="middle" x="377.02" y="-202.2" font-family="STIX Two Text" font-size="14.00">Stage 6a — Manual content surfaces</text>
<text xml:space="preserve" text-anchor="middle" x="377.02" y="-187.2" font-family="STIX Two Text" font-size="14.00">15 chapters · 322 .md files</text>
</g>
<!-- MAN&#45;&gt;COV -->
<g id="edge6" class="edge">
<title>MAN&#45;&gt;COV</title>
<path fill="none" stroke="#2c3e50" d="M387.97,-177.89C393.58,-168.22 401.07,-157.14 409.77,-148.8 413.13,-145.58 416.82,-142.51 420.68,-139.63"/>
<polygon fill="#2c3e50" stroke="#2c3e50" points="422.43,-142.68 428.67,-134.11 418.45,-136.92 422.43,-142.68"/>
<text xml:space="preserve" text-anchor="middle" x="457.39" y="-151.1" font-family="STIX Two Text" font-size="11.00"> &#160;prose + traceability</text>
</g>
<!-- MAN&#45;&gt;FROZ -->
<g id="edge9" class="edge">
<title>MAN&#45;&gt;FROZ</title>
<path fill="none" stroke="#7f8c8d" stroke-dasharray="5,2" d="M305.86,-177.85C284.64,-167.71 263.79,-153.21 251.52,-132.8 235.68,-106.44 255.41,-75.16 275.77,-52.77"/>
<polygon fill="#7f8c8d" stroke="#7f8c8d" points="278.1,-55.39 282.49,-45.75 273.05,-50.56 278.1,-55.39"/>
<text xml:space="preserve" text-anchor="middle" x="286.77" y="-106.15" font-family="STIX Two Text" font-size="11.00" fill="#7f8c8d">Manual anchor</text>
</g>
<!-- KG -->
<g id="node8" class="node">
<title>KG</title>
<path fill="#fff3e0" stroke="#2c3e50" d="M695.79,-222.7C695.79,-222.7 530.25,-222.7 530.25,-222.7 524.25,-222.7 518.25,-216.7 518.25,-210.7 518.25,-210.7 518.25,-190.3 518.25,-190.3 518.25,-184.3 524.25,-178.3 530.25,-178.3 530.25,-178.3 695.79,-178.3 695.79,-178.3 701.79,-178.3 707.79,-184.3 707.79,-190.3 707.79,-190.3 707.79,-210.7 707.79,-210.7 707.79,-216.7 701.79,-222.7 695.79,-222.7"/>
<text xml:space="preserve" text-anchor="middle" x="613.02" y="-202.2" font-family="STIX Two Text" font-size="14.00">Stage 6b — KG runtime v1.2</text>
<text xml:space="preserve" text-anchor="middle" x="613.02" y="-187.2" font-family="STIX Two Text" font-size="14.00">1,964 linkage records</text>
</g>
<!-- KG&#45;&gt;COV -->
<g id="edge7" class="edge">
<title>KG&#45;&gt;COV</title>
<path fill="none" stroke="#2c3e50" d="M578.77,-178C560.13,-166.29 536.86,-151.68 516.9,-139.15"/>
<polygon fill="#2c3e50" stroke="#2c3e50" points="519.01,-136.34 508.68,-133.99 515.29,-142.27 519.01,-136.34"/>
<text xml:space="preserve" text-anchor="middle" x="588.9" y="-151.1" font-family="STIX Two Text" font-size="11.00"> &#160;linkage records</text>
</g>
<!-- KG&#45;&gt;FROZ -->
<g id="edge10" class="edge">
<title>KG&#45;&gt;FROZ</title>
<path fill="none" stroke="#7f8c8d" stroke-dasharray="5,2" d="M625.4,-178.07C627.72,-173.05 629.8,-167.61 631.02,-162.3 636.19,-139.73 637.3,-103.03 624.02,-88.4 598.32,-60.08 510.15,-43.43 433.45,-34.04"/>
<polygon fill="#7f8c8d" stroke="#7f8c8d" points="434.07,-30.59 423.73,-32.89 433.25,-37.54 434.07,-30.59"/>
<text xml:space="preserve" text-anchor="middle" x="660.12" y="-106.15" font-family="STIX Two Text" font-size="11.00" fill="#7f8c8d">KG anchor</text>
</g>
</g>
</svg>
