<?xml version="1.0" encoding="UTF-8" standalone="no"?>
<!DOCTYPE svg PUBLIC "-//W3C//DTD SVG 1.1//EN"
 "http://www.w3.org/Graphics/SVG/1.1/DTD/svg11.dtd">
<!-- Generated by graphviz version 14.0.4 (20251115.1723)
 -->
<!-- Title: p8_pipeline_architecture Pages: 1 -->
<svg width="1408pt" height="236pt"
 viewBox="0.00 0.00 1408.00 236.00" xmlns="http://www.w3.org/2000/svg" xmlns:xlink="http://www.w3.org/1999/xlink">
<g id="graph0" class="graph" transform="scale(1 1) rotate(0) translate(4 232)">
<title>p8_pipeline_architecture</title>
<polygon fill="white" stroke="none" points="-4,4 -4,-232 1404.25,-232 1404.25,4 -4,4"/>
<!-- ES -->
<g id="node1" class="node">
<title>ES</title>
<path fill="white" stroke="#2c3e50" d="M163,-222C163,-222 12,-222 12,-222 6,-222 0,-216 0,-210 0,-210 0,-190 0,-190 0,-184 6,-178 12,-178 12,-178 163,-178 163,-178 169,-178 175,-184 175,-190 175,-190 175,-210 175,-210 175,-216 169,-222 163,-222"/>
<text xml:space="preserve" text-anchor="middle" x="87.5" y="-207.55" font-family="STIX Two Text" font-size="11.00">External&#45;source corpus</text>
<text xml:space="preserve" text-anchor="middle" x="87.5" y="-195.55" font-family="STIX Two Text" font-size="11.00">31 sources</text>
<text xml:space="preserve" text-anchor="middle" x="87.5" y="-183.55" font-family="STIX Two Text" font-size="11.00">(26 baseline + 5 AI/ML extension)</text>
</g>
<!-- P7 -->
<g id="node2" class="node">
<title>P7</title>
<path fill="white" stroke="#2c3e50" d="M380,-222C380,-222 277.75,-222 277.75,-222 271.75,-222 265.75,-216 265.75,-210 265.75,-210 265.75,-190 265.75,-190 265.75,-184 271.75,-178 277.75,-178 277.75,-178 380,-178 380,-178 386,-178 392,-184 392,-190 392,-190 392,-210 392,-210 392,-216 386,-222 380,-222"/>
<text xml:space="preserve" text-anchor="middle" x="328.88" y="-207.55" font-family="STIX Two Text" font-size="11.00">Normalization pipeline</text>
<text xml:space="preserve" text-anchor="middle" x="328.88" y="-195.55" font-family="STIX Two Text" font-size="11.00">claim&#45;centric two&#45;stage</text>
<text xml:space="preserve" text-anchor="middle" x="328.88" y="-183.55" font-family="STIX Two Text" font-size="11.00">(lifting + grounding)</text>
</g>
<!-- ES&#45;&gt;P7 -->
<g id="edge1" class="edge">
<title>ES&#45;&gt;P7</title>
<path fill="none" stroke="#2c3e50" d="M175.26,-200C201.13,-200 229.23,-200 254.19,-200"/>
<polygon fill="#2c3e50" stroke="#2c3e50" points="253.9,-203.5 263.9,-200 253.9,-196.5 253.9,-203.5"/>
<text xml:space="preserve" text-anchor="middle" x="220.38" y="-201.75" font-family="STIX Two Text" font-size="10.00">lift + ground</text>
</g>
<!-- SUB -->
<g id="node3" class="node">
<title>SUB</title>
<path fill="#e8f4f8" stroke="#2c3e50" d="M627.75,-228C627.75,-228 495.5,-228 495.5,-228 489.5,-228 483.5,-222 483.5,-216 483.5,-216 483.5,-184 483.5,-184 483.5,-178 489.5,-172 495.5,-172 495.5,-172 627.75,-172 627.75,-172 633.75,-172 639.75,-178 639.75,-184 639.75,-184 639.75,-216 639.75,-216 639.75,-222 633.75,-228 627.75,-228"/>
<text xml:space="preserve" text-anchor="middle" x="561.62" y="-213.55" font-family="STIX Two Text" font-size="11.00">Normalized substrate</text>
<text xml:space="preserve" text-anchor="middle" x="561.62" y="-201.55" font-family="STIX Two Text" font-size="11.00">3,861 items</text>
<text xml:space="preserve" text-anchor="middle" x="561.62" y="-189.55" font-family="STIX Two Text" font-size="11.00">18,673 GROUNDED claims</text>
<text xml:space="preserve" text-anchor="middle" x="561.62" y="-177.55" font-family="STIX Two Text" font-size="11.00">74.4% item&#45;level GROUNDED</text>
</g>
<!-- P7&#45;&gt;SUB -->
<g id="edge2" class="edge">
<title>P7&#45;&gt;SUB</title>
<path fill="none" stroke="#2c3e50" d="M392.32,-200C416.84,-200 445.44,-200 472.03,-200"/>
<polygon fill="#2c3e50" stroke="#2c3e50" points="471.78,-203.5 481.78,-200 471.78,-196.5 471.78,-203.5"/>
<text xml:space="preserve" text-anchor="middle" x="437.75" y="-201.75" font-family="STIX Two Text" font-size="10.00">claim&#45;centric</text>
</g>
<!-- V1 -->
<g id="node4" class="node">
<title>V1</title>
<path fill="#e8f4f8" stroke="#2c3e50" d="M879.62,-228C879.62,-228 751.12,-228 751.12,-228 745.12,-228 739.12,-222 739.12,-216 739.12,-216 739.12,-184 739.12,-184 739.12,-178 745.12,-172 751.12,-172 751.12,-172 879.62,-172 879.62,-172 885.62,-172 891.62,-178 891.62,-184 891.62,-184 891.62,-216 891.62,-216 891.62,-222 885.62,-228 879.62,-228"/>
<text xml:space="preserve" text-anchor="middle" x="815.38" y="-213.55" font-family="STIX Two Text" font-size="11.00">AppSec Core V1 ontology</text>
<text xml:space="preserve" text-anchor="middle" x="815.38" y="-201.55" font-family="STIX Two Text" font-size="11.00">259 entities</text>
<text xml:space="preserve" text-anchor="middle" x="815.38" y="-189.55" font-family="STIX Two Text" font-size="11.00">(75 CO + 69 P + 58 M + 57 A)</text>
<text xml:space="preserve" text-anchor="middle" x="815.38" y="-177.55" font-family="STIX Two Text" font-size="11.00">10 slices ASC&#45;01..10</text>
</g>
<!-- SUB&#45;&gt;V1 -->
<g id="edge3" class="edge">
<title>SUB&#45;&gt;V1</title>
<path fill="none" stroke="#2c3e50" d="M640.21,-200C667.89,-200 699.24,-200 727.63,-200"/>
<polygon fill="#2c3e50" stroke="#2c3e50" points="727.26,-203.5 737.26,-200 727.26,-196.5 727.26,-203.5"/>
<text xml:space="preserve" text-anchor="middle" x="685.12" y="-213" font-family="STIX Two Text" font-size="10.00">bind via slice</text>
<text xml:space="preserve" text-anchor="middle" x="685.12" y="-201.75" font-family="STIX Two Text" font-size="10.00">+ entity IRI</text>
</g>
<!-- COV -->
<g id="node5" class="node">
<title>COV</title>
<path fill="white" stroke="#2c3e50" d="M1122.5,-170C1122.5,-170 1012.75,-170 1012.75,-170 1006.75,-170 1000.75,-164 1000.75,-158 1000.75,-158 1000.75,-114 1000.75,-114 1000.75,-108 1006.75,-102 1012.75,-102 1012.75,-102 1122.5,-102 1122.5,-102 1128.5,-102 1134.5,-108 1134.5,-114 1134.5,-114 1134.5,-158 1134.5,-158 1134.5,-164 1128.5,-170 1122.5,-170"/>
<text xml:space="preserve" text-anchor="middle" x="1067.62" y="-155.55" font-family="STIX Two Text" font-size="11.00">Manual coverage analysis</text>
<text xml:space="preserve" text-anchor="middle" x="1067.62" y="-143.55" font-family="STIX Two Text" font-size="11.00">202 / 202 substantive</text>
<text xml:space="preserve" text-anchor="middle" x="1067.62" y="-131.55" font-family="STIX Two Text" font-size="11.00">entities surfaced</text>
<text xml:space="preserve" text-anchor="middle" x="1067.62" y="-119.55" font-family="STIX Two Text" font-size="11.00">38 Phase&#45;1 ambiguous</text>
<text xml:space="preserve" text-anchor="middle" x="1067.62" y="-107.55" font-family="STIX Two Text" font-size="11.00">classified via §26 vocab</text>
</g>
<!-- V1&#45;&gt;COV -->
<g id="edge4" class="edge">
<title>V1&#45;&gt;COV</title>
<path fill="none" stroke="#2c3e50" d="M891.87,-176.77C900.74,-174.23 909.68,-171.75 918.25,-169.5 941.19,-163.48 966.29,-157.57 989.22,-152.42"/>
<polygon fill="#2c3e50" stroke="#2c3e50" points="989.8,-155.87 998.81,-150.28 988.28,-149.04 989.8,-155.87"/>
<text xml:space="preserve" text-anchor="middle" x="950.5" y="-182.5" font-family="STIX Two Text" font-size="10.00">V1 &#45;&gt; Manual</text>
<text xml:space="preserve" text-anchor="middle" x="950.5" y="-171.25" font-family="STIX Two Text" font-size="10.00">analysis</text>
</g>
<!-- FROZ -->
<g id="node8" class="node">
<title>FROZ</title>
<path fill="#dceadc" stroke="#2c3e50" d="M1388.25,-132C1388.25,-132 1259,-132 1259,-132 1253,-132 1247,-126 1247,-120 1247,-120 1247,-88 1247,-88 1247,-82 1253,-76 1259,-76 1259,-76 1388.25,-76 1388.25,-76 1394.25,-76 1400.25,-82 1400.25,-88 1400.25,-88 1400.25,-120 1400.25,-120 1400.25,-126 1394.25,-132 1388.25,-132"/>
<text xml:space="preserve" text-anchor="middle" x="1323.62" y="-117.55" font-family="STIX Two Text" font-size="11.00">Cycle B frozen joint snapshot</text>
<text xml:space="preserve" text-anchor="middle" x="1323.62" y="-105.55" font-family="STIX Two Text" font-size="11.00">tag cycle&#45;b&#45;frozen&#45;2026&#45;05&#45;12</text>
<text xml:space="preserve" text-anchor="middle" x="1323.62" y="-93.55" font-family="STIX Two Text" font-size="11.00">Manual + KG + DG + ESI</text>
<text xml:space="preserve" text-anchor="middle" x="1323.62" y="-81.55" font-family="STIX Two Text" font-size="11.00">(4 peer cross&#45;repo tags)</text>
</g>
<!-- V1&#45;&gt;FROZ -->
<g id="edge8" class="edge">
<title>V1&#45;&gt;FROZ</title>
<path fill="none" stroke="#2c3e50" stroke-dasharray="5,2" d="M891.78,-196.97C920.29,-195.67 953.03,-193.99 982.75,-192 1050.29,-187.48 1068.63,-194.59 1134.5,-179 1175.45,-169.31 1219.23,-152.28 1254.24,-136.9"/>
<polygon fill="#2c3e50" stroke="#2c3e50" points="1255.25,-140.29 1262.96,-133.02 1252.4,-133.89 1255.25,-140.29"/>
<text xml:space="preserve" text-anchor="middle" x="1067.62" y="-192.71" font-family="STIX Two Text" font-size="10.00">V1 anchor</text>
</g>
<!-- COV&#45;&gt;FROZ -->
<g id="edge7" class="edge">
<title>COV&#45;&gt;FROZ</title>
<path fill="none" stroke="#2c3e50" d="M1134.7,-127.68C1165.47,-123.8 1202.49,-119.13 1235.51,-114.97"/>
<polygon fill="#2c3e50" stroke="#2c3e50" points="1235.56,-118.5 1245.04,-113.77 1234.68,-111.55 1235.56,-118.5"/>
<text xml:space="preserve" text-anchor="middle" x="1190.75" y="-126.49" font-family="STIX Two Text" font-size="10.00">empirical findings</text>
</g>
<!-- MAN -->
<g id="node6" class="node">
<title>MAN</title>
<path fill="#fff3e0" stroke="#2c3e50" d="M875.88,-149C875.88,-149 754.88,-149 754.88,-149 748.88,-149 742.88,-143 742.88,-137 742.88,-137 742.88,-93 742.88,-93 742.88,-87 748.88,-81 754.88,-81 754.88,-81 875.88,-81 875.88,-81 881.88,-81 887.88,-87 887.88,-93 887.88,-93 887.88,-137 887.88,-137 887.88,-143 881.88,-149 875.88,-149"/>
<text xml:space="preserve" text-anchor="middle" x="815.38" y="-134.55" font-family="STIX Two Text" font-size="11.00">Manual content surfaces</text>
<text xml:space="preserve" text-anchor="middle" x="815.38" y="-122.55" font-family="STIX Two Text" font-size="11.00">15 chapters × 4 doc families</text>
<text xml:space="preserve" text-anchor="middle" x="815.38" y="-110.55" font-family="STIX Two Text" font-size="11.00">(traceability + maturity</text>
<text xml:space="preserve" text-anchor="middle" x="815.38" y="-98.55" font-family="STIX Two Text" font-size="11.00">+ threats + checklist)</text>
<text xml:space="preserve" text-anchor="middle" x="815.38" y="-86.55" font-family="STIX Two Text" font-size="11.00">322 .md files</text>
</g>
<!-- MAN&#45;&gt;COV -->
<g id="edge5" class="edge">
<title>MAN&#45;&gt;COV</title>
<path fill="none" stroke="#2c3e50" d="M888.18,-115.73C917.56,-116.57 951.85,-118.24 982.75,-121.5 984.81,-121.72 986.9,-121.95 989,-122.21"/>
<polygon fill="#2c3e50" stroke="#2c3e50" points="988.48,-125.67 998.85,-123.51 989.4,-118.73 988.48,-125.67"/>
<text xml:space="preserve" text-anchor="middle" x="950.5" y="-134.5" font-family="STIX Two Text" font-size="10.00">traceability</text>
<text xml:space="preserve" text-anchor="middle" x="950.5" y="-123.25" font-family="STIX Two Text" font-size="10.00">+ prose corpus</text>
</g>
<!-- MAN&#45;&gt;FROZ -->
<g id="edge9" class="edge">
<title>MAN&#45;&gt;FROZ</title>
<path fill="none" stroke="#2c3e50" stroke-dasharray="5,2" d="M888.21,-98.97C922.15,-92.19 963.33,-85.1 1000.75,-81.75 1080.09,-74.65 1170.61,-82.31 1235.41,-90.51"/>
<polygon fill="#2c3e50" stroke="#2c3e50" points="1234.92,-93.98 1245.29,-91.8 1235.83,-87.04 1234.92,-93.98"/>
<text xml:space="preserve" text-anchor="middle" x="1067.62" y="-83.5" font-family="STIX Two Text" font-size="10.00">Manual anchor</text>
</g>
<!-- KG -->
<g id="node7" class="node">
<title>KG</title>
<path fill="#fff3e0" stroke="#2c3e50" d="M888.25,-56C888.25,-56 742.5,-56 742.5,-56 736.5,-56 730.5,-50 730.5,-44 730.5,-44 730.5,-12 730.5,-12 730.5,-6 736.5,0 742.5,0 742.5,0 888.25,0 888.25,0 894.25,0 900.25,-6 900.25,-12 900.25,-12 900.25,-44 900.25,-44 900.25,-50 894.25,-56 888.25,-56"/>
<text xml:space="preserve" text-anchor="middle" x="815.38" y="-41.55" font-family="STIX Two Text" font-size="11.00">KG runtime v1.2</text>
<text xml:space="preserve" text-anchor="middle" x="815.38" y="-29.55" font-family="STIX Two Text" font-size="11.00">1,964 linkage records</text>
<text xml:space="preserve" text-anchor="middle" x="815.38" y="-17.55" font-family="STIX Two Text" font-size="11.00">(1,105 traceability + 336 maturity</text>
<text xml:space="preserve" text-anchor="middle" x="815.38" y="-5.55" font-family="STIX Two Text" font-size="11.00">+ 523 threats)</text>
</g>
<!-- KG&#45;&gt;COV -->
<g id="edge6" class="edge">
<title>KG&#45;&gt;COV</title>
<path fill="none" stroke="#2c3e50" d="M882.13,-56.38C915.2,-70.65 955.47,-88.03 989.95,-102.91"/>
<polygon fill="#2c3e50" stroke="#2c3e50" points="988.49,-106.09 999.06,-106.84 991.26,-99.66 988.49,-106.09"/>
<text xml:space="preserve" text-anchor="middle" x="950.5" y="-99.73" font-family="STIX Two Text" font-size="10.00">linkage records</text>
</g>
<!-- KG&#45;&gt;FROZ -->
<g id="edge10" class="edge">
<title>KG&#45;&gt;FROZ</title>
<path fill="none" stroke="#2c3e50" stroke-dasharray="5,2" d="M900.47,-34.06C984.36,-41.11 1116.59,-54.99 1229,-79 1231.16,-79.46 1233.34,-79.94 1235.54,-80.44"/>
<polygon fill="#2c3e50" stroke="#2c3e50" points="1234.64,-83.82 1245.17,-82.68 1236.23,-77 1234.64,-83.82"/>
<text xml:space="preserve" text-anchor="middle" x="1067.62" y="-62.57" font-family="STIX Two Text" font-size="10.00">KG anchor</text>
</g>
</g>
</svg>
