<?xml version="1.0" encoding="UTF-8" standalone="no"?>
<!DOCTYPE svg PUBLIC "-//W3C//DTD SVG 1.1//EN"
 "http://www.w3.org/Graphics/SVG/1.1/DTD/svg11.dtd">
<!-- Generated by graphviz version 14.0.4 (20251115.1723)
 -->
<!-- Title: figure_2_po1_sa1_strict_match_baseline Pages: 1 -->
<svg width="2339pt" height="336pt"
 viewBox="0.00 0.00 2339.00 336.00" xmlns="http://www.w3.org/2000/svg" xmlns:xlink="http://www.w3.org/1999/xlink">
<g id="graph0" class="graph" transform="scale(1 1) rotate(0) translate(21.6 314.3)">
<title>figure_2_po1_sa1_strict_match_baseline</title>
<polygon fill="white" stroke="none" points="-21.6,21.6 -21.6,-314.3 2316.95,-314.3 2316.95,21.6 -21.6,21.6"/>
<g id="clust1" class="cluster">
<title>cluster_tier1</title>
</g>
<g id="clust3" class="cluster">
<title>cluster_tier2</title>
</g>
<g id="clust5" class="cluster">
<title>cluster_tier3</title>
</g>
<!-- figure_title -->
<g id="node1" class="node">
<title>figure_title</title>
<path fill="none" stroke="none" d="M452.85,-243.62C452.85,-243.62 12,-243.62 12,-243.62 6,-243.62 0,-237.62 0,-231.62 0,-231.62 0,-219.62 0,-219.62 0,-213.62 6,-207.62 12,-207.62 12,-207.62 452.85,-207.62 452.85,-207.62 458.85,-207.62 464.85,-213.62 464.85,-219.62 464.85,-219.62 464.85,-231.62 464.85,-231.62 464.85,-237.62 458.85,-243.62 452.85,-243.62"/>
<text xml:space="preserve" text-anchor="start" x="10.8" y="-223.12" font-family="STIX Two Text" font-weight="bold" font-size="10.00">Multi&#45;claim alignment: SSDF PO.1 ↔ SP800&#45;53 SA&#45;1 — strict primary CO match (clean baseline)</text>
</g>
<!-- entry_left -->
<g id="node2" class="node">
<title>entry_left</title>
<path fill="#f4f4f8" stroke="#1f4e79" stroke-width="2" d="M967.1,-258.95C967.1,-258.95 501.75,-258.95 501.75,-258.95 495.75,-258.95 489.75,-252.95 489.75,-246.95 489.75,-246.95 489.75,-204.3 489.75,-204.3 489.75,-198.3 495.75,-192.3 501.75,-192.3 501.75,-192.3 967.1,-192.3 967.1,-192.3 973.1,-192.3 979.1,-198.3 979.1,-204.3 979.1,-204.3 979.1,-246.95 979.1,-246.95 979.1,-252.95 973.1,-258.95 967.1,-258.95"/>
<text xml:space="preserve" text-anchor="start" x="685.67" y="-239.25" font-family="STIX Two Text" font-weight="bold" font-size="10.00">ssdf_sp800_218_v1_1</text>
<text xml:space="preserve" text-anchor="start" x="676.67" y="-221.05" font-family="STIX Two Text" font-weight="bold" font-size="11.00">SSDF&#45;PRACTICE&#45;PO.1</text>
<text xml:space="preserve" text-anchor="start" x="504.55" y="-205.9" font-family="STIX Two Text" font-style="italic" font-size="8.00" fill="#555555">Define Security Requirements for Software Development. Ensure that security requirements for software development are known at all times so…</text>
</g>
<!-- claim_left_1 -->
<g id="node4" class="node">
<title>claim_left_1</title>
<path fill="#fef6e0" stroke="#a83232" stroke-width="2.5" d="M462.82,-133.55C462.82,-133.55 386.03,-133.55 386.03,-133.55 380.03,-133.55 374.03,-127.55 374.03,-121.55 374.03,-121.55 374.03,-107.15 374.03,-107.15 374.03,-101.15 380.03,-95.15 386.03,-95.15 386.03,-95.15 462.82,-95.15 462.82,-95.15 468.82,-95.15 474.82,-101.15 474.82,-107.15 474.82,-107.15 474.82,-121.55 474.82,-121.55 474.82,-127.55 468.82,-133.55 462.82,-133.55"/>
<text xml:space="preserve" text-anchor="start" x="418.8" y="-119.75" font-family="STIX Two Text" font-weight="bold" font-size="8.00">CO</text>
<text xml:space="preserve" text-anchor="start" x="394.43" y="-110.8" font-family="STIX Two Text" font-weight="bold" font-size="9.00">ACO&#45;TMR&#45;008</text>
<text xml:space="preserve" text-anchor="start" x="409.8" y="-103.7" font-family="STIX Two Text" font-size="7.00" fill="#555555">sim 0.759</text>
</g>
<!-- entry_left&#45;&gt;claim_left_1 -->
<g id="edge1" class="edge">
<title>entry_left&#45;&gt;claim_left_1</title>
<path fill="none" stroke="#aaaaaa" stroke-dasharray="1,5" d="M575.38,-191.38C545.49,-182.69 514.99,-172.07 487.43,-159.3 475.25,-153.66 462.91,-145.66 452.42,-138.03"/>
<polygon fill="#aaaaaa" stroke="#aaaaaa" points="453.31,-136.95 449.26,-135.69 451.64,-139.2 453.31,-136.95"/>
</g>
<!-- claim_left_2 -->
<g id="node5" class="node">
<title>claim_left_2</title>
<path fill="#e0f0e0" stroke="#2c3e50" stroke-dasharray="5,2" d="M588.82,-133.55C588.82,-133.55 512.02,-133.55 512.02,-133.55 506.02,-133.55 500.02,-127.55 500.02,-121.55 500.02,-121.55 500.02,-107.15 500.02,-107.15 500.02,-101.15 506.02,-95.15 512.02,-95.15 512.02,-95.15 588.82,-95.15 588.82,-95.15 594.82,-95.15 600.82,-101.15 600.82,-107.15 600.82,-107.15 600.82,-121.55 600.82,-121.55 600.82,-127.55 594.82,-133.55 588.82,-133.55"/>
<text xml:space="preserve" text-anchor="start" x="547.8" y="-119.75" font-family="STIX Two Text" font-weight="bold" font-size="8.00">P</text>
<text xml:space="preserve" text-anchor="start" x="520.8" y="-110.8" font-family="STIX Two Text" font-weight="bold" font-size="9.00">ACP&#45;TMR&#45;008</text>
<text xml:space="preserve" text-anchor="start" x="535.8" y="-103.7" font-family="STIX Two Text" font-size="7.00" fill="#555555">sim 0.754</text>
</g>
<!-- entry_left&#45;&gt;claim_left_2 -->
<g id="edge2" class="edge">
<title>entry_left&#45;&gt;claim_left_2</title>
<path fill="none" stroke="#aaaaaa" stroke-dasharray="1,5" d="M669.6,-191.39C651.2,-181.48 631.31,-170.32 613.42,-159.3 602.3,-152.45 590.46,-144.4 580.08,-137.08"/>
<polygon fill="#aaaaaa" stroke="#aaaaaa" points="581.04,-136.04 576.96,-134.86 579.41,-138.32 581.04,-136.04"/>
</g>
<!-- claim_left_3 -->
<g id="node6" class="node">
<title>claim_left_3</title>
<path fill="#e0e8f5" stroke="#2c3e50" stroke-dasharray="5,2" d="M714.82,-133.55C714.82,-133.55 638.02,-133.55 638.02,-133.55 632.02,-133.55 626.02,-127.55 626.02,-121.55 626.02,-121.55 626.02,-107.15 626.02,-107.15 626.02,-101.15 632.02,-95.15 638.02,-95.15 638.02,-95.15 714.82,-95.15 714.82,-95.15 720.82,-95.15 726.82,-101.15 726.82,-107.15 726.82,-107.15 726.82,-121.55 726.82,-121.55 726.82,-127.55 720.82,-133.55 714.82,-133.55"/>
<text xml:space="preserve" text-anchor="start" x="672.3" y="-119.75" font-family="STIX Two Text" font-weight="bold" font-size="8.00">M</text>
<text xml:space="preserve" text-anchor="start" x="645.3" y="-110.8" font-family="STIX Two Text" font-weight="bold" font-size="9.00">ACM&#45;TMR&#45;007</text>
<text xml:space="preserve" text-anchor="start" x="661.8" y="-103.7" font-family="STIX Two Text" font-size="7.00" fill="#555555">sim 0.658</text>
</g>
<!-- entry_left&#45;&gt;claim_left_3 -->
<g id="edge3" class="edge">
<title>entry_left&#45;&gt;claim_left_3</title>
<path fill="none" stroke="#aaaaaa" stroke-dasharray="1,5" d="M716.87,-191.54C707.8,-174.46 696.96,-154.04 688.79,-138.64"/>
<polygon fill="#aaaaaa" stroke="#aaaaaa" points="690.16,-138.24 687.05,-135.37 687.69,-139.55 690.16,-138.24"/>
</g>
<!-- claim_left_4 -->
<g id="node7" class="node">
<title>claim_left_4</title>
<path fill="#fef6e0" stroke="#2c3e50" stroke-dasharray="5,2" d="M840.82,-133.55C840.82,-133.55 764.02,-133.55 764.02,-133.55 758.02,-133.55 752.02,-127.55 752.02,-121.55 752.02,-121.55 752.02,-107.15 752.02,-107.15 752.02,-101.15 758.02,-95.15 764.02,-95.15 764.02,-95.15 840.82,-95.15 840.82,-95.15 846.82,-95.15 852.82,-101.15 852.82,-107.15 852.82,-107.15 852.82,-121.55 852.82,-121.55 852.82,-127.55 846.82,-133.55 840.82,-133.55"/>
<text xml:space="preserve" text-anchor="start" x="796.8" y="-119.75" font-family="STIX Two Text" font-weight="bold" font-size="8.00">CO</text>
<text xml:space="preserve" text-anchor="start" x="773.17" y="-110.8" font-family="STIX Two Text" font-weight="bold" font-size="9.00">ACO&#45;RPR&#45;009</text>
<text xml:space="preserve" text-anchor="start" x="787.8" y="-103.7" font-family="STIX Two Text" font-size="7.00" fill="#555555">sim 0.536</text>
</g>
<!-- entry_left&#45;&gt;claim_left_4 -->
<g id="edge4" class="edge">
<title>entry_left&#45;&gt;claim_left_4</title>
<path fill="none" stroke="#aaaaaa" stroke-dasharray="1,5" d="M755.01,-191.54C765.64,-174.46 778.35,-154.04 787.93,-138.64"/>
<polygon fill="#aaaaaa" stroke="#aaaaaa" points="789.08,-139.45 790,-135.31 786.7,-137.97 789.08,-139.45"/>
</g>
<!-- claim_left_5 -->
<g id="node8" class="node">
<title>claim_left_5</title>
<path fill="#e0f0e0" stroke="#2c3e50" stroke-dasharray="5,2" d="M966.82,-133.55C966.82,-133.55 890.02,-133.55 890.02,-133.55 884.02,-133.55 878.02,-127.55 878.02,-121.55 878.02,-121.55 878.02,-107.15 878.02,-107.15 878.02,-101.15 884.02,-95.15 890.02,-95.15 890.02,-95.15 966.82,-95.15 966.82,-95.15 972.82,-95.15 978.82,-101.15 978.82,-107.15 978.82,-107.15 978.82,-121.55 978.82,-121.55 978.82,-127.55 972.82,-133.55 966.82,-133.55"/>
<text xml:space="preserve" text-anchor="start" x="925.8" y="-119.75" font-family="STIX Two Text" font-weight="bold" font-size="8.00">P</text>
<text xml:space="preserve" text-anchor="start" x="899.55" y="-110.8" font-family="STIX Two Text" font-weight="bold" font-size="9.00">ACP&#45;RPR&#45;008</text>
<text xml:space="preserve" text-anchor="start" x="913.8" y="-103.7" font-family="STIX Two Text" font-size="7.00" fill="#555555">sim 0.513</text>
</g>
<!-- entry_left&#45;&gt;claim_left_5 -->
<g id="edge5" class="edge">
<title>entry_left&#45;&gt;claim_left_5</title>
<path fill="none" stroke="#aaaaaa" stroke-dasharray="1,5" d="M805.8,-191.4C825.44,-181.62 846.52,-170.52 865.42,-159.3 876.76,-152.57 888.74,-144.48 899.17,-137.09"/>
<polygon fill="#aaaaaa" stroke="#aaaaaa" points="899.87,-138.31 902.31,-134.85 898.24,-136.03 899.87,-138.31"/>
</g>
<!-- entry_right -->
<g id="node3" class="node">
<title>entry_right</title>
<path fill="#f4f4f8" stroke="#2e6f40" stroke-width="2" d="M1480.72,-258.95C1480.72,-258.95 1016.12,-258.95 1016.12,-258.95 1010.12,-258.95 1004.12,-252.95 1004.12,-246.95 1004.12,-246.95 1004.12,-204.3 1004.12,-204.3 1004.12,-198.3 1010.12,-192.3 1016.12,-192.3 1016.12,-192.3 1480.72,-192.3 1480.72,-192.3 1486.72,-192.3 1492.72,-198.3 1492.72,-204.3 1492.72,-204.3 1492.72,-246.95 1492.72,-246.95 1492.72,-252.95 1486.72,-258.95 1480.72,-258.95"/>
<text xml:space="preserve" text-anchor="start" x="1203.05" y="-239.25" font-family="STIX Two Text" font-weight="bold" font-size="10.00">nist_sp800_53_rev5</text>
<text xml:space="preserve" text-anchor="start" x="1213.55" y="-221.05" font-family="STIX Two Text" font-weight="bold" font-size="11.00">SP800&#45;53&#45;SA&#45;1</text>
<text xml:space="preserve" text-anchor="start" x="1018.92" y="-205.9" font-family="STIX Two Text" font-style="italic" font-size="8.00" fill="#555555">Policy and Procedures. Develop, document, and disseminate to [organization&#45;defined personnel or roles]: system and services acquisition pol…</text>
</g>
<!-- claim_right_1 -->
<g id="node9" class="node">
<title>claim_right_1</title>
<path fill="#e0f0e0" stroke="#2c3e50" stroke-dasharray="5,2" d="M1344.83,-133.55C1344.83,-133.55 1268.02,-133.55 1268.02,-133.55 1262.02,-133.55 1256.02,-127.55 1256.02,-121.55 1256.02,-121.55 1256.02,-107.15 1256.02,-107.15 1256.02,-101.15 1262.02,-95.15 1268.02,-95.15 1268.02,-95.15 1344.83,-95.15 1344.83,-95.15 1350.83,-95.15 1356.83,-101.15 1356.83,-107.15 1356.83,-107.15 1356.83,-121.55 1356.83,-121.55 1356.83,-127.55 1350.83,-133.55 1344.83,-133.55"/>
<text xml:space="preserve" text-anchor="start" x="1303.8" y="-119.75" font-family="STIX Two Text" font-weight="bold" font-size="8.00">P</text>
<text xml:space="preserve" text-anchor="start" x="1277.17" y="-110.8" font-family="STIX Two Text" font-weight="bold" font-size="9.00">ACP&#45;SCBI&#45;003</text>
<text xml:space="preserve" text-anchor="start" x="1291.8" y="-103.7" font-family="STIX Two Text" font-size="7.00" fill="#555555">sim 0.538</text>
</g>
<!-- entry_right&#45;&gt;claim_right_1 -->
<g id="edge6" class="edge">
<title>entry_right&#45;&gt;claim_right_1</title>
<path fill="none" stroke="#aaaaaa" stroke-dasharray="1,5" d="M1265.98,-191.54C1275.05,-174.46 1285.89,-154.04 1294.06,-138.64"/>
<polygon fill="#aaaaaa" stroke="#aaaaaa" points="1295.16,-139.55 1295.8,-135.37 1292.69,-138.24 1295.16,-139.55"/>
</g>
<!-- claim_right_2 -->
<g id="node10" class="node">
<title>claim_right_2</title>
<path fill="#e0e8f5" stroke="#2c3e50" stroke-dasharray="5,2" d="M1092.83,-133.55C1092.83,-133.55 1016.02,-133.55 1016.02,-133.55 1010.02,-133.55 1004.02,-127.55 1004.02,-121.55 1004.02,-121.55 1004.02,-107.15 1004.02,-107.15 1004.02,-101.15 1010.02,-95.15 1016.02,-95.15 1016.02,-95.15 1092.83,-95.15 1092.83,-95.15 1098.83,-95.15 1104.83,-101.15 1104.83,-107.15 1104.83,-107.15 1104.83,-121.55 1104.83,-121.55 1104.83,-127.55 1098.83,-133.55 1092.83,-133.55"/>
<text xml:space="preserve" text-anchor="start" x="1050.3" y="-119.75" font-family="STIX Two Text" font-weight="bold" font-size="8.00">M</text>
<text xml:space="preserve" text-anchor="start" x="1026.3" y="-110.8" font-family="STIX Two Text" font-weight="bold" font-size="9.00">ACM&#45;IAT&#45;002</text>
<text xml:space="preserve" text-anchor="start" x="1039.8" y="-103.7" font-family="STIX Two Text" font-size="7.00" fill="#555555">sim 0.476</text>
</g>
<!-- entry_right&#45;&gt;claim_right_2 -->
<g id="edge7" class="edge">
<title>entry_right&#45;&gt;claim_right_2</title>
<path fill="none" stroke="#aaaaaa" stroke-dasharray="1,5" d="M1177.05,-191.4C1157.41,-181.62 1136.33,-170.52 1117.42,-159.3 1106.09,-152.57 1094.11,-144.48 1083.68,-137.09"/>
<polygon fill="#aaaaaa" stroke="#aaaaaa" points="1084.61,-136.03 1080.54,-134.85 1082.98,-138.31 1084.61,-136.03"/>
</g>
<!-- claim_right_3 -->
<g id="node11" class="node">
<title>claim_right_3</title>
<path fill="#e0e8f5" stroke="#2c3e50" stroke-dasharray="5,2" d="M1218.83,-133.55C1218.83,-133.55 1142.02,-133.55 1142.02,-133.55 1136.02,-133.55 1130.02,-127.55 1130.02,-121.55 1130.02,-121.55 1130.02,-107.15 1130.02,-107.15 1130.02,-101.15 1136.02,-95.15 1142.02,-95.15 1142.02,-95.15 1218.83,-95.15 1218.83,-95.15 1224.83,-95.15 1230.83,-101.15 1230.83,-107.15 1230.83,-107.15 1230.83,-121.55 1230.83,-121.55 1230.83,-127.55 1224.83,-133.55 1218.83,-133.55"/>
<text xml:space="preserve" text-anchor="start" x="1176.3" y="-119.75" font-family="STIX Two Text" font-weight="bold" font-size="8.00">M</text>
<text xml:space="preserve" text-anchor="start" x="1152.3" y="-110.8" font-family="STIX Two Text" font-weight="bold" font-size="9.00">ACM&#45;IAT&#45;006</text>
<text xml:space="preserve" text-anchor="start" x="1165.8" y="-103.7" font-family="STIX Two Text" font-size="7.00" fill="#555555">sim 0.467</text>
</g>
<!-- entry_right&#45;&gt;claim_right_3 -->
<g id="edge8" class="edge">
<title>entry_right&#45;&gt;claim_right_3</title>
<path fill="none" stroke="#aaaaaa" stroke-dasharray="1,5" d="M1227.84,-191.54C1217.21,-174.46 1204.5,-154.04 1194.92,-138.64"/>
<polygon fill="#aaaaaa" stroke="#aaaaaa" points="1196.15,-137.97 1192.85,-135.31 1193.77,-139.45 1196.15,-137.97"/>
</g>
<!-- claim_right_4 -->
<g id="node12" class="node">
<title>claim_right_4</title>
<path fill="#e0e8f5" stroke="#2c3e50" stroke-dasharray="5,2" d="M1470.83,-133.55C1470.83,-133.55 1394.02,-133.55 1394.02,-133.55 1388.02,-133.55 1382.02,-127.55 1382.02,-121.55 1382.02,-121.55 1382.02,-107.15 1382.02,-107.15 1382.02,-101.15 1388.02,-95.15 1394.02,-95.15 1394.02,-95.15 1470.83,-95.15 1470.83,-95.15 1476.83,-95.15 1482.83,-101.15 1482.83,-107.15 1482.83,-107.15 1482.83,-121.55 1482.83,-121.55 1482.83,-127.55 1476.83,-133.55 1470.83,-133.55"/>
<text xml:space="preserve" text-anchor="start" x="1428.3" y="-119.75" font-family="STIX Two Text" font-weight="bold" font-size="8.00">M</text>
<text xml:space="preserve" text-anchor="start" x="1401.67" y="-110.8" font-family="STIX Two Text" font-weight="bold" font-size="9.00">ACM&#45;SCBI&#45;001</text>
<text xml:space="preserve" text-anchor="start" x="1417.8" y="-103.7" font-family="STIX Two Text" font-size="7.00" fill="#555555">sim 0.464</text>
</g>
<!-- entry_right&#45;&gt;claim_right_4 -->
<g id="edge9" class="edge">
<title>entry_right&#45;&gt;claim_right_4</title>
<path fill="none" stroke="#aaaaaa" stroke-dasharray="1,5" d="M1313.25,-191.39C1331.65,-181.48 1351.54,-170.32 1369.42,-159.3 1380.55,-152.45 1392.39,-144.4 1402.77,-137.08"/>
<polygon fill="#aaaaaa" stroke="#aaaaaa" points="1403.44,-138.32 1405.89,-134.86 1401.81,-136.04 1403.44,-138.32"/>
</g>
<!-- claim_right_5 -->
<g id="node13" class="node">
<title>claim_right_5</title>
<path fill="#e0f0e0" stroke="#2c3e50" stroke-dasharray="5,2" d="M1596.83,-133.55C1596.83,-133.55 1520.02,-133.55 1520.02,-133.55 1514.02,-133.55 1508.02,-127.55 1508.02,-121.55 1508.02,-121.55 1508.02,-107.15 1508.02,-107.15 1508.02,-101.15 1514.02,-95.15 1520.02,-95.15 1520.02,-95.15 1596.83,-95.15 1596.83,-95.15 1602.83,-95.15 1608.83,-101.15 1608.83,-107.15 1608.83,-107.15 1608.83,-121.55 1608.83,-121.55 1608.83,-127.55 1602.83,-133.55 1596.83,-133.55"/>
<text xml:space="preserve" text-anchor="start" x="1555.8" y="-119.75" font-family="STIX Two Text" font-weight="bold" font-size="8.00">P</text>
<text xml:space="preserve" text-anchor="start" x="1529.17" y="-110.8" font-family="STIX Two Text" font-weight="bold" font-size="9.00">ACP&#45;SCBI&#45;003</text>
<text xml:space="preserve" text-anchor="start" x="1543.8" y="-103.7" font-family="STIX Two Text" font-size="7.00" fill="#555555">sim 0.462</text>
</g>
<!-- entry_right&#45;&gt;claim_right_5 -->
<g id="edge10" class="edge">
<title>entry_right&#45;&gt;claim_right_5</title>
<path fill="none" stroke="#aaaaaa" stroke-dasharray="1,5" d="M1407.47,-191.38C1437.36,-182.69 1467.86,-172.07 1495.42,-159.3 1508.14,-153.41 1521.03,-144.95 1531.8,-137.03"/>
<polygon fill="#aaaaaa" stroke="#aaaaaa" points="1532.4,-138.33 1534.77,-134.81 1530.73,-136.09 1532.4,-138.33"/>
</g>
<!-- slice_ACO_TMR -->
<g id="node20" class="node">
<title>slice_ACO_TMR</title>
<path fill="#ffd966" stroke="#2c3e50" stroke-width="2.5" d="M722.02,-53.4C722.02,-53.4 630.82,-53.4 630.82,-53.4 624.82,-53.4 618.82,-47.4 618.82,-41.4 618.82,-41.4 618.82,-28 618.82,-28 618.82,-22 624.82,-16 630.82,-16 630.82,-16 722.02,-16 722.02,-16 728.02,-16 734.02,-22 734.02,-28 734.02,-28 734.02,-41.4 734.02,-41.4 734.02,-47.4 728.02,-53.4 722.02,-53.4"/>
<text xml:space="preserve" text-anchor="start" x="654.67" y="-38.65" font-family="STIX Two Text" font-weight="bold" font-size="9.00">ACO&#45;TMR</text>
<text xml:space="preserve" text-anchor="start" x="641.17" y="-31.55" font-family="STIX Two Text" font-style="italic" font-size="7.00" fill="#444444">Threat Modeling &amp; Risk</text>
<text xml:space="preserve" text-anchor="start" x="655.42" y="-24.55" font-family="STIX Two Text" font-weight="bold" font-size="7.00" fill="#7a4900">★ frontier ★</text>
</g>
<!-- claim_left_1&#45;&gt;slice_ACO_TMR -->
<g id="edge11" class="edge">
<title>claim_left_1&#45;&gt;slice_ACO_TMR</title>
<path fill="none" stroke="#a83232" stroke-width="3.7" d="M465.81,-93.91C472.89,-91.23 480.28,-88.83 487.43,-87.15 539.03,-75.03 555.96,-95.39 606.42,-79.15 619.27,-75.02 632.16,-68.03 643.31,-60.85"/>
<polygon fill="#a83232" stroke="#a83232" stroke-width="3.7" points="644.18,-62.79 647.98,-57.69 641.83,-59.31 644.18,-62.79"/>
</g>
<!-- claim_left_2&#45;&gt;slice_ACO_TMR -->
<g id="edge12" class="edge">
<title>claim_left_2&#45;&gt;slice_ACO_TMR</title>
<path fill="none" stroke="#5b6770" stroke-width="3.7" stroke-dasharray="5,2" d="M580.97,-94.75C589.24,-89.7 598.18,-84.23 606.42,-79.15 616.2,-73.13 626.72,-66.62 636.57,-60.51"/>
<polygon fill="#5b6770" stroke="#5b6770" stroke-width="3.7" points="637.39,-62.47 641.38,-57.52 635.17,-58.9 637.39,-62.47"/>
</g>
<!-- claim_left_3&#45;&gt;slice_ACO_TMR -->
<g id="edge13" class="edge">
<title>claim_left_3&#45;&gt;slice_ACO_TMR</title>
<path fill="none" stroke="#5b6770" stroke-width="2.9" stroke-dasharray="5,2" d="M676.42,-94.95C676.42,-85.89 676.42,-74.77 676.42,-64.61"/>
<polygon fill="#5b6770" stroke="#5b6770" stroke-width="2.9" points="678.53,-64.9 676.43,-58.9 674.33,-64.9 678.53,-64.9"/>
</g>
<!-- slice_ACO_RPR -->
<g id="node16" class="node">
<title>slice_ACO_RPR</title>
<path fill="#f4f4f8" stroke="#2c3e50" stroke-width="1.5" d="M891.35,-52.7C891.35,-52.7 771.5,-52.7 771.5,-52.7 765.5,-52.7 759.5,-46.7 759.5,-40.7 759.5,-40.7 759.5,-28.7 759.5,-28.7 759.5,-22.7 765.5,-16.7 771.5,-16.7 771.5,-16.7 891.35,-16.7 891.35,-16.7 897.35,-16.7 903.35,-22.7 903.35,-28.7 903.35,-28.7 903.35,-40.7 903.35,-40.7 903.35,-46.7 897.35,-52.7 891.35,-52.7"/>
<text xml:space="preserve" text-anchor="start" x="810.42" y="-35.15" font-family="STIX Two Text" font-weight="bold" font-size="9.00">ACO&#45;RPR</text>
<text xml:space="preserve" text-anchor="start" x="770.3" y="-28.05" font-family="STIX Two Text" font-style="italic" font-size="7.00" fill="#444444">Release, Promotion &amp; Rollback Readiness</text>
</g>
<!-- claim_left_4&#45;&gt;slice_ACO_RPR -->
<g id="edge14" class="edge">
<title>claim_left_4&#45;&gt;slice_ACO_RPR</title>
<path fill="none" stroke="#5b6770" stroke-width="2" stroke-dasharray="5,2" d="M809.3,-94.95C813,-85.04 817.63,-72.65 821.69,-61.77"/>
<polygon fill="#5b6770" stroke="#5b6770" stroke-width="2" points="823.61,-62.63 823.74,-56.27 819.68,-61.16 823.61,-62.63"/>
</g>
<!-- claim_left_5&#45;&gt;slice_ACO_RPR -->
<g id="edge15" class="edge">
<title>claim_left_5&#45;&gt;slice_ACO_RPR</title>
<path fill="none" stroke="#5b6770" stroke-width="1.8" stroke-dasharray="5,2" d="M905.44,-94.95C891.83,-84.06 874.49,-70.17 860.01,-58.58"/>
<polygon fill="#5b6770" stroke="#5b6770" stroke-width="1.8" points="861.7,-57.25 855.71,-55.14 859.08,-60.53 861.7,-57.25"/>
</g>
<!-- slice_ACO_SCBI -->
<g id="node17" class="node">
<title>slice_ACO_SCBI</title>
<path fill="#ffd966" stroke="#2c3e50" stroke-width="2.5" d="M1478.02,-53.4C1478.02,-53.4 1386.83,-53.4 1386.83,-53.4 1380.83,-53.4 1374.83,-47.4 1374.83,-41.4 1374.83,-41.4 1374.83,-28 1374.83,-28 1374.83,-22 1380.83,-16 1386.83,-16 1386.83,-16 1478.02,-16 1478.02,-16 1484.02,-16 1490.02,-22 1490.02,-28 1490.02,-28 1490.02,-41.4 1490.02,-41.4 1490.02,-47.4 1484.02,-53.4 1478.02,-53.4"/>
<text xml:space="preserve" text-anchor="start" x="1411.05" y="-38.65" font-family="STIX Two Text" font-weight="bold" font-size="9.00">ACO&#45;SCBI</text>
<text xml:space="preserve" text-anchor="start" x="1387.05" y="-31.55" font-family="STIX Two Text" font-style="italic" font-size="7.00" fill="#444444">Supply Chain &amp; Build Integrity</text>
<text xml:space="preserve" text-anchor="start" x="1411.42" y="-24.55" font-family="STIX Two Text" font-weight="bold" font-size="7.00" fill="#7a4900">★ frontier ★</text>
</g>
<!-- claim_right_1&#45;&gt;slice_ACO_SCBI -->
<g id="edge16" class="edge">
<title>claim_right_1&#45;&gt;slice_ACO_SCBI</title>
<path fill="none" stroke="#5b6770" stroke-width="2" stroke-dasharray="5,2" d="M1336.97,-94.75C1345.24,-89.7 1354.18,-84.23 1362.42,-79.15 1372.91,-72.69 1384.26,-65.66 1394.71,-59.18"/>
<polygon fill="#5b6770" stroke="#5b6770" stroke-width="2" points="1395.57,-61.12 1399.56,-56.17 1393.36,-57.55 1395.57,-61.12"/>
</g>
<!-- slice_ACO_IAT -->
<g id="node15" class="node">
<title>slice_ACO_IAT</title>
<path fill="#f4f4f8" stroke="#2c3e50" stroke-width="1.5" d="M1032.02,-52.7C1032.02,-52.7 940.82,-52.7 940.82,-52.7 934.82,-52.7 928.82,-46.7 928.82,-40.7 928.82,-40.7 928.82,-28.7 928.82,-28.7 928.82,-22.7 934.82,-16.7 940.82,-16.7 940.82,-16.7 1032.02,-16.7 1032.02,-16.7 1038.02,-16.7 1044.02,-22.7 1044.02,-28.7 1044.02,-28.7 1044.02,-40.7 1044.02,-40.7 1044.02,-46.7 1038.02,-52.7 1032.02,-52.7"/>
<text xml:space="preserve" text-anchor="start" x="967.3" y="-35.15" font-family="STIX Two Text" font-weight="bold" font-size="9.00">ACO&#45;IAT</text>
<text xml:space="preserve" text-anchor="start" x="941.8" y="-28.05" font-family="STIX Two Text" font-style="italic" font-size="7.00" fill="#444444">Identity, Access &amp; Session Trust</text>
</g>
<!-- claim_right_2&#45;&gt;slice_ACO_IAT -->
<g id="edge17" class="edge">
<title>claim_right_2&#45;&gt;slice_ACO_IAT</title>
<path fill="none" stroke="#5b6770" stroke-width="1.6" stroke-dasharray="5,2" d="M1038.31,-94.95C1029.03,-84.35 1017.27,-70.92 1007.29,-59.53"/>
<polygon fill="#5b6770" stroke="#5b6770" stroke-width="1.6" points="1009.08,-58.39 1003.55,-55.26 1005.92,-61.15 1009.08,-58.39"/>
</g>
<!-- claim_right_3&#45;&gt;slice_ACO_IAT -->
<g id="edge18" class="edge">
<title>claim_right_3&#45;&gt;slice_ACO_IAT</title>
<path fill="none" stroke="#5b6770" stroke-width="1.5" stroke-dasharray="5,2" d="M1139.97,-94.69C1132.58,-91.82 1124.86,-89.15 1117.42,-87.15 1091.02,-80.06 1082.18,-88.34 1056.42,-79.15 1042.24,-74.08 1027.87,-65.83 1015.88,-57.87"/>
<polygon fill="#5b6770" stroke="#5b6770" stroke-width="1.5" points="1017.13,-56.18 1010.99,-54.53 1014.76,-59.65 1017.13,-56.18"/>
</g>
<!-- claim_right_4&#45;&gt;slice_ACO_SCBI -->
<g id="edge19" class="edge">
<title>claim_right_4&#45;&gt;slice_ACO_SCBI</title>
<path fill="none" stroke="#5b6770" stroke-width="1.5" stroke-dasharray="5,2" d="M1432.42,-94.95C1432.42,-85.32 1432.42,-73.36 1432.42,-62.7"/>
<polygon fill="#5b6770" stroke="#5b6770" stroke-width="1.5" points="1434.53,-62.78 1432.43,-56.78 1430.33,-62.78 1434.53,-62.78"/>
</g>
<!-- claim_right_5&#45;&gt;slice_ACO_SCBI -->
<g id="edge20" class="edge">
<title>claim_right_5&#45;&gt;slice_ACO_SCBI</title>
<path fill="none" stroke="#5b6770" stroke-width="1.5" stroke-dasharray="5,2" d="M1527.88,-94.75C1519.61,-89.7 1510.67,-84.23 1502.42,-79.15 1491.73,-72.57 1480.15,-65.39 1469.53,-58.8"/>
<polygon fill="#5b6770" stroke="#5b6770" stroke-width="1.5" points="1470.85,-57.15 1464.64,-55.77 1468.63,-60.72 1470.85,-57.15"/>
</g>
<!-- slice_ACO_ATB -->
<g id="node14" class="node">
<title>slice_ACO_ATB</title>
<path fill="#f4f4f8" stroke="#2c3e50" stroke-width="1.5" d="M581.85,-52.7C581.85,-52.7 489,-52.7 489,-52.7 483,-52.7 477,-46.7 477,-40.7 477,-40.7 477,-28.7 477,-28.7 477,-22.7 483,-16.7 489,-16.7 489,-16.7 581.85,-16.7 581.85,-16.7 587.85,-16.7 593.85,-22.7 593.85,-28.7 593.85,-28.7 593.85,-40.7 593.85,-40.7 593.85,-46.7 587.85,-52.7 581.85,-52.7"/>
<text xml:space="preserve" text-anchor="start" x="515.17" y="-35.15" font-family="STIX Two Text" font-weight="bold" font-size="9.00">ACO&#45;ATB</text>
<text xml:space="preserve" text-anchor="start" x="487.8" y="-28.05" font-family="STIX Two Text" font-style="italic" font-size="7.00" fill="#444444">Architecture &amp; Trust Boundaries</text>
</g>
<!-- slice_ACO_SLG -->
<g id="node18" class="node">
<title>slice_ACO_SLG</title>
<path fill="#f4f4f8" stroke="#2c3e50" stroke-width="1.5" d="M1172.02,-52.7C1172.02,-52.7 1080.83,-52.7 1080.83,-52.7 1074.83,-52.7 1068.83,-46.7 1068.83,-40.7 1068.83,-40.7 1068.83,-28.7 1068.83,-28.7 1068.83,-22.7 1074.83,-16.7 1080.83,-16.7 1080.83,-16.7 1172.02,-16.7 1172.02,-16.7 1178.02,-16.7 1184.02,-22.7 1184.02,-28.7 1184.02,-28.7 1184.02,-40.7 1184.02,-40.7 1184.02,-46.7 1178.02,-52.7 1172.02,-52.7"/>
<text xml:space="preserve" text-anchor="start" x="1106.55" y="-35.15" font-family="STIX Two Text" font-weight="bold" font-size="9.00">ACO&#45;SLG</text>
<text xml:space="preserve" text-anchor="start" x="1082.17" y="-28.05" font-family="STIX Two Text" font-style="italic" font-size="7.00" fill="#444444">Security Logging &amp; Audit Trail</text>
</g>
<!-- slice_ACO_SPC -->
<g id="node19" class="node">
<title>slice_ACO_SPC</title>
<path fill="#ffd966" stroke="#2c3e50" stroke-width="2.5" d="M1338.22,-53.4C1338.22,-53.4 1220.62,-53.4 1220.62,-53.4 1214.62,-53.4 1208.62,-47.4 1208.62,-41.4 1208.62,-41.4 1208.62,-28 1208.62,-28 1208.62,-22 1214.62,-16 1220.62,-16 1220.62,-16 1338.22,-16 1338.22,-16 1344.22,-16 1350.22,-22 1350.22,-28 1350.22,-28 1350.22,-41.4 1350.22,-41.4 1350.22,-47.4 1344.22,-53.4 1338.22,-53.4"/>
<text xml:space="preserve" text-anchor="start" x="1259.92" y="-38.65" font-family="STIX Two Text" font-weight="bold" font-size="9.00">ACO&#45;SPC</text>
<text xml:space="preserve" text-anchor="start" x="1219.42" y="-31.55" font-family="STIX Two Text" font-style="italic" font-size="7.00" fill="#444444">Secret Handling, Protected Configuration</text>
<text xml:space="preserve" text-anchor="start" x="1258.42" y="-24.55" font-family="STIX Two Text" font-weight="bold" font-size="7.00" fill="#7a4900">★ frontier ★</text>
</g>
<!-- slice_ACO_TSV -->
<g id="node21" class="node">
<title>slice_ACO_TSV</title>
<path fill="#ffd966" stroke="#2c3e50" stroke-width="2.5" d="M1618.02,-53.4C1618.02,-53.4 1526.83,-53.4 1526.83,-53.4 1520.83,-53.4 1514.83,-47.4 1514.83,-41.4 1514.83,-41.4 1514.83,-28 1514.83,-28 1514.83,-22 1520.83,-16 1526.83,-16 1526.83,-16 1618.02,-16 1618.02,-16 1624.02,-16 1630.02,-22 1630.02,-28 1630.02,-28 1630.02,-41.4 1630.02,-41.4 1630.02,-47.4 1624.02,-53.4 1618.02,-53.4"/>
<text xml:space="preserve" text-anchor="start" x="1552.92" y="-38.65" font-family="STIX Two Text" font-weight="bold" font-size="9.00">ACO&#45;TSV</text>
<text xml:space="preserve" text-anchor="start" x="1532.3" y="-31.55" font-family="STIX Two Text" font-style="italic" font-size="7.00" fill="#444444">Testing, Security Validation</text>
<text xml:space="preserve" text-anchor="start" x="1551.42" y="-24.55" font-family="STIX Two Text" font-weight="bold" font-size="7.00" fill="#7a4900">★ frontier ★</text>
</g>
<!-- annotation_0 -->
<g id="node22" class="node">
<title>annotation_0</title>
<polygon fill="#fffbe6" stroke="#1f6f3a" points="1787.07,-243.62 1517.78,-243.62 1517.78,-207.62 1793.07,-207.62 1793.07,-237.62 1787.07,-243.62"/>
<polyline fill="none" stroke="#1f6f3a" points="1787.07,-243.62 1787.07,-237.62"/>
<polyline fill="none" stroke="#1f6f3a" points="1793.07,-237.62 1787.07,-237.62"/>
<text xml:space="preserve" text-anchor="start" x="1526.42" y="-222.95" font-family="STIX Two Text" font-size="9.00">Strict primary CO match: </text>
<text xml:space="preserve" text-anchor="start" x="1625.42" y="-222.95" font-family="STIX Two Text" font-weight="bold" font-size="9.00">TRUE</text>
<text xml:space="preserve" text-anchor="start" x="1650.92" y="-222.95" font-family="STIX Two Text" font-size="9.00"> (ACO&#45;TMR&#45;008 = ACO&#45;TMR&#45;008)</text>
</g>
<!-- annotation_1 -->
<g id="node23" class="node">
<title>annotation_1</title>
<polygon fill="#fffbe6" stroke="#2c3e50" points="2110.69,-243.62 1818.16,-243.62 1818.16,-207.62 2116.69,-207.62 2116.69,-237.62 2110.69,-243.62"/>
<polyline fill="none" stroke="#2c3e50" points="2110.69,-243.62 2110.69,-237.62"/>
<polyline fill="none" stroke="#2c3e50" points="2116.69,-237.62 2110.69,-237.62"/>
<text xml:space="preserve" text-anchor="start" x="1826.8" y="-221.95" font-family="STIX Two Text" font-size="9.00">Frontier also matches (broader slice neighbourhood reinforces alignment)</text>
</g>
<!-- legend -->
<g id="node24" class="node">
<title>legend</title>
<path fill="none" stroke="#888888" d="M2283.35,-277.7C2283.35,-277.7 2153.5,-277.7 2153.5,-277.7 2147.5,-277.7 2141.5,-271.7 2141.5,-265.7 2141.5,-265.7 2141.5,-185.55 2141.5,-185.55 2141.5,-179.55 2147.5,-173.55 2153.5,-173.55 2153.5,-173.55 2283.35,-173.55 2283.35,-173.55 2289.35,-173.55 2295.35,-179.55 2295.35,-185.55 2295.35,-185.55 2295.35,-265.7 2295.35,-265.7 2295.35,-271.7 2289.35,-277.7 2283.35,-277.7"/>
<text xml:space="preserve" text-anchor="start" x="2203.05" y="-258.95" font-family="STIX Two Text" font-weight="bold" font-size="9.00">Legend</text>
<text xml:space="preserve" text-anchor="start" x="2156.3" y="-243.15" font-family="STIX Two Text" font-size="8.00">━━ primary claim (CO&#45;level pref.)</text>
<text xml:space="preserve" text-anchor="start" x="2156.3" y="-225.15" font-family="STIX Two Text" font-size="8.00">┄┄ secondary claim (P/M&#45;level)</text>
<text xml:space="preserve" text-anchor="start" x="2156.3" y="-207.15" font-family="STIX Two Text" font-size="8.00">edge thickness ∝ similarity score</text>
<polygon fill="#ffd966" stroke="none" points="2154.3,-182.75 2154.3,-198.75 2280.55,-198.75 2280.55,-182.75 2154.3,-182.75"/>
<text xml:space="preserve" text-anchor="start" x="2156.3" y="-189.15" font-family="STIX Two Text" font-size="8.00">★ frontier intersection slice</text>
</g>
</g>
</svg>
