<?xml version="1.0" encoding="UTF-8" standalone="no"?>
<!DOCTYPE svg PUBLIC "-//W3C//DTD SVG 1.1//EN"
 "http://www.w3.org/Graphics/SVG/1.1/DTD/svg11.dtd">
<!-- Generated by graphviz version 14.0.4 (20251115.1723)
 -->
<!-- Title: G2Pipeline Pages: 1 -->
<svg width="1165pt" height="106pt"
 viewBox="0.00 0.00 1165.00 106.00" xmlns="http://www.w3.org/2000/svg" xmlns:xlink="http://www.w3.org/1999/xlink">
<g id="graph0" class="graph" transform="scale(1 1) rotate(0) translate(21.6 84.88)">
<title>G2Pipeline</title>
<polygon fill="white" stroke="none" points="-21.6,21.6 -21.6,-84.88 1143.37,-84.88 1143.37,21.6 -21.6,21.6"/>
<!-- input -->
<g id="node1" class="node">
<title>input</title>
<path fill="none" stroke="none" d="M115.17,-49.64C115.17,-49.64 12,-49.64 12,-49.64 6,-49.64 0,-43.64 0,-37.64 0,-37.64 0,-25.64 0,-25.64 0,-19.64 6,-13.64 12,-13.64 12,-13.64 115.17,-13.64 115.17,-13.64 121.17,-13.64 127.17,-19.64 127.17,-25.64 127.17,-25.64 127.17,-37.64 127.17,-37.64 127.17,-43.64 121.17,-49.64 115.17,-49.64"/>
<text xml:space="preserve" text-anchor="middle" x="63.59" y="-27.77" font-family="STIX Two Text" font-size="10.00">Task prompt + metadata</text>
</g>
<!-- activator -->
<g id="node2" class="node">
<title>activator</title>
<path fill="#f4f4f8" stroke="#2c3e50" d="M282.59,-58.78C282.59,-58.78 180.17,-58.78 180.17,-58.78 174.17,-58.78 168.17,-52.78 168.17,-46.78 168.17,-46.78 168.17,-16.5 168.17,-16.5 168.17,-10.5 174.17,-4.5 180.17,-4.5 180.17,-4.5 282.59,-4.5 282.59,-4.5 288.59,-4.5 294.59,-10.5 294.59,-16.5 294.59,-16.5 294.59,-46.78 294.59,-46.78 294.59,-52.78 288.59,-58.78 282.59,-58.78"/>
<text xml:space="preserve" text-anchor="start" x="197.63" y="-41.64" font-family="STIX Two Text" font-weight="bold" font-size="10.00">Slice Activator</text>
<text xml:space="preserve" text-anchor="start" x="204.38" y="-32.59" font-family="STIX Two Text" font-style="italic" font-size="9.00">(deterministic)</text>
<text xml:space="preserve" text-anchor="start" x="191.63" y="-23.59" font-family="STIX Two Text" font-size="9.00">From task metadata.</text>
<text xml:space="preserve" text-anchor="start" x="181.13" y="-14.59" font-family="STIX Two Text" font-size="9.00">In Paper 4: pre&#45;annotated.</text>
</g>
<!-- input&#45;&gt;activator -->
<g id="edge1" class="edge">
<title>input&#45;&gt;activator</title>
<path fill="none" stroke="#2c3e50" d="M126.79,-31.64C137.48,-31.64 148.66,-31.64 159.56,-31.64"/>
<polygon fill="#2c3e50" stroke="#2c3e50" points="159.31,-34.09 166.31,-31.64 159.31,-29.19 159.31,-34.09"/>
</g>
<!-- traversal -->
<g id="node3" class="node">
<title>traversal</title>
<path fill="#f4f4f8" stroke="#2c3e50" d="M513.51,-63.28C513.51,-63.28 381.09,-63.28 381.09,-63.28 375.09,-63.28 369.09,-57.28 369.09,-51.28 369.09,-51.28 369.09,-12 369.09,-12 369.09,-6 375.09,0 381.09,0 381.09,0 513.51,0 513.51,0 519.51,0 525.51,-6 525.51,-12 525.51,-12 525.51,-51.28 525.51,-51.28 525.51,-57.28 519.51,-63.28 513.51,-63.28"/>
<text xml:space="preserve" text-anchor="start" x="409.43" y="-46.14" font-family="STIX Two Text" font-weight="bold" font-size="10.00">Graph Traversal</text>
<text xml:space="preserve" text-anchor="start" x="420.3" y="-37.09" font-family="STIX Two Text" font-style="italic" font-size="9.00">(deterministic)</text>
<text xml:space="preserve" text-anchor="start" x="394.43" y="-28.09" font-family="STIX Two Text" font-size="9.00">All ControlObjectives at L2.</text>
<text xml:space="preserve" text-anchor="start" x="382.05" y="-19.09" font-family="STIX Two Text" font-size="9.00">Expand to Practices, Mechanisms,</text>
<text xml:space="preserve" text-anchor="start" x="401.93" y="-10.09" font-family="STIX Two Text" font-size="9.00">Artifacts, AntiPatterns.</text>
</g>
<!-- activator&#45;&gt;traversal -->
<g id="edge2" class="edge">
<title>activator&#45;&gt;traversal</title>
<path fill="none" stroke="#2c3e50" d="M294.83,-31.64C315.39,-31.64 338.62,-31.64 360.6,-31.64"/>
<polygon fill="#2c3e50" stroke="#2c3e50" points="360.44,-34.09 367.44,-31.64 360.44,-29.19 360.44,-34.09"/>
<text xml:space="preserve" text-anchor="middle" x="331.84" y="-52.34" font-family="STIX Two Text" font-size="9.00">activated</text>
<text xml:space="preserve" text-anchor="middle" x="331.84" y="-42.59" font-family="STIX Two Text" font-size="9.00">slices,</text>
<text xml:space="preserve" text-anchor="middle" x="331.84" y="-32.84" font-family="STIX Two Text" font-size="9.00">L2</text>
</g>
<!-- assembly -->
<g id="node4" class="node">
<title>assembly</title>
<path fill="#f4f4f8" stroke="#2c3e50" d="M727.18,-63.28C727.18,-63.28 598.51,-63.28 598.51,-63.28 592.51,-63.28 586.51,-57.28 586.51,-51.28 586.51,-51.28 586.51,-12 586.51,-12 586.51,-6 592.51,0 598.51,0 598.51,0 727.18,0 727.18,0 733.18,0 739.18,-6 739.18,-12 739.18,-12 739.18,-51.28 739.18,-51.28 739.18,-57.28 733.18,-63.28 727.18,-63.28"/>
<text xml:space="preserve" text-anchor="start" x="620.47" y="-46.14" font-family="STIX Two Text" font-weight="bold" font-size="10.00">Context Assembly</text>
<text xml:space="preserve" text-anchor="start" x="635.85" y="-37.09" font-family="STIX Two Text" font-style="italic" font-size="9.00">(deterministic)</text>
<text xml:space="preserve" text-anchor="start" x="611.47" y="-28.09" font-family="STIX Two Text" font-size="9.00">Order by epistemic weight.</text>
<text xml:space="preserve" text-anchor="start" x="606.97" y="-19.09" font-family="STIX Two Text" font-size="9.00">Attach provenance + citation</text>
<text xml:space="preserve" text-anchor="start" x="599.47" y="-10.09" font-family="STIX Two Text" font-size="9.00">templates. Respect token budget.</text>
</g>
<!-- traversal&#45;&gt;assembly -->
<g id="edge3" class="edge">
<title>traversal&#45;&gt;assembly</title>
<path fill="none" stroke="#2c3e50" d="M526,-31.64C542.91,-31.64 560.87,-31.64 578.01,-31.64"/>
<polygon fill="#2c3e50" stroke="#2c3e50" points="577.83,-34.09 584.83,-31.64 577.83,-29.19 577.83,-34.09"/>
<text xml:space="preserve" text-anchor="middle" x="556.01" y="-42.59" font-family="STIX Two Text" font-size="9.00">typed</text>
<text xml:space="preserve" text-anchor="middle" x="556.01" y="-32.84" font-family="STIX Two Text" font-size="9.00">units</text>
</g>
<!-- delivery -->
<g id="node5" class="node">
<title>delivery</title>
<path fill="#f4f4f8" stroke="#2c3e50" d="M934.85,-58.78C934.85,-58.78 830.93,-58.78 830.93,-58.78 824.93,-58.78 818.93,-52.78 818.93,-46.78 818.93,-46.78 818.93,-16.5 818.93,-16.5 818.93,-10.5 824.93,-4.5 830.93,-4.5 830.93,-4.5 934.85,-4.5 934.85,-4.5 940.85,-4.5 946.85,-10.5 946.85,-16.5 946.85,-16.5 946.85,-46.78 946.85,-46.78 946.85,-52.78 940.85,-58.78 934.85,-58.78"/>
<text xml:space="preserve" text-anchor="start" x="863.39" y="-41.64" font-family="STIX Two Text" font-weight="bold" font-size="10.00">Delivery</text>
<text xml:space="preserve" text-anchor="start" x="855.89" y="-32.59" font-family="STIX Two Text" font-style="italic" font-size="9.00">(deterministic)</text>
<text xml:space="preserve" text-anchor="start" x="836.02" y="-23.59" font-family="STIX Two Text" font-size="9.00">Inject structured context</text>
<text xml:space="preserve" text-anchor="start" x="831.89" y="-14.59" font-family="STIX Two Text" font-size="9.00">into LLM prompt via MCP.</text>
</g>
<!-- assembly&#45;&gt;delivery -->
<g id="edge4" class="edge">
<title>assembly&#45;&gt;delivery</title>
<path fill="none" stroke="#2c3e50" d="M739.49,-31.64C762.5,-31.64 787.7,-31.64 810.42,-31.64"/>
<polygon fill="#2c3e50" stroke="#2c3e50" points="810.16,-34.09 817.16,-31.64 810.16,-29.19 810.16,-34.09"/>
<text xml:space="preserve" text-anchor="middle" x="779.06" y="-42.59" font-family="STIX Two Text" font-size="9.00">structured</text>
<text xml:space="preserve" text-anchor="middle" x="779.06" y="-32.84" font-family="STIX Two Text" font-size="9.00">context</text>
</g>
<!-- llm -->
<g id="node6" class="node">
<title>llm</title>
<path fill="none" stroke="none" d="M1109.77,-49.64C1109.77,-49.64 999.85,-49.64 999.85,-49.64 993.85,-49.64 987.85,-43.64 987.85,-37.64 987.85,-37.64 987.85,-25.64 987.85,-25.64 987.85,-19.64 993.85,-13.64 999.85,-13.64 999.85,-13.64 1109.77,-13.64 1109.77,-13.64 1115.77,-13.64 1121.77,-19.64 1121.77,-25.64 1121.77,-25.64 1121.77,-37.64 1121.77,-37.64 1121.77,-43.64 1115.77,-49.64 1109.77,-49.64"/>
<text xml:space="preserve" text-anchor="middle" x="1054.81" y="-27.77" font-family="STIX Two Text" font-size="10.00">LLM (Claude Sonnet 4.6)</text>
</g>
<!-- delivery&#45;&gt;llm -->
<g id="edge5" class="edge">
<title>delivery&#45;&gt;llm</title>
<path fill="none" stroke="#2c3e50" d="M947.16,-31.64C957.76,-31.64 968.85,-31.64 979.69,-31.64"/>
<polygon fill="#2c3e50" stroke="#2c3e50" points="979.41,-34.09 986.41,-31.64 979.41,-29.19 979.41,-34.09"/>
</g>
</g>
</svg>
